<svg id="Component_13_7" data-name="Component 13 – 7" xmlns="http://www.w3.org/2000/svg" width="110" height="110" viewBox="0 0 110 110">
  <path id="Path_1286" data-name="Path 1286" d="M55,0c30.376,0,55,24.1,55,53.83v2.34C110,85.9,85.376,110,55,110S0,85.9,0,56.17V53.83C0,24.1,24.624,0,55,0Z" fill="rgba(1,192,200,0.88)"/>
  <g id="Group_1876" data-name="Group 1876" transform="translate(27 35)">
    <g id="Group_1875" data-name="Group 1875" transform="translate(0 0)">
      <g id="Group_1870" data-name="Group 1870">
        <ellipse id="Ellipse_312" data-name="Ellipse 312" cx="1.796" cy="1.803" rx="1.796" ry="1.803" transform="translate(8.077 31.389)" fill="#fff"/>
        <path id="Path_1287" data-name="Path 1287" d="M47,43.133h.929a3.907,3.907,0,0,0,3.9-3.915h0a3.907,3.907,0,0,0-3.9-3.915H46.232a39.917,39.917,0,0,0-3.018-9.157h1.568c.678,0,.9-.6.9-1.17A4.967,4.967,0,0,0,40.723,20H6.956A4.966,4.966,0,0,0,2,24.976V53.191a.9.9,0,0,0,.9.9H5.66a6.272,6.272,0,0,0,12.425,0H39.817a6.284,6.284,0,1,0,6.993-7.157Q46.994,45.033,47,43.133ZM29.364,52.29H21.511L17.438,38.953a.9.9,0,0,0-.858-.637h-.955l-.686-4.111a3.128,3.128,0,0,0-3.1-2.617H9.779V26.146H29.364ZM9.779,33.391H11.84A1.335,1.335,0,0,1,13.168,34.5l.636,3.814H9.779Zm38.146,3.714a2.108,2.108,0,0,1,2.1,2.112h0a2.108,2.108,0,0,1-2.1,2.112h-.968a39.7,39.7,0,0,0-.413-4.224h1.381Zm-6.5-10.538A38.192,38.192,0,0,1,44.9,38.316H31.159V26.146H41.227ZM6.956,21.8H40.723a3.169,3.169,0,0,1,3.1,2.541H3.859A3.169,3.169,0,0,1,6.956,21.8ZM3.8,26.146H7.984V39.218a.9.9,0,0,0,.9.9h7.035l3.718,12.17H18.086a6.272,6.272,0,0,0-12.425,0H3.8ZM11.873,57.7a4.507,4.507,0,1,1,4.489-4.507A4.5,4.5,0,0,1,11.873,57.7ZM31.159,40.12H45.084c.055.7.1,1.4.111,2.1,0,0,0,.006,0,.009s0,.014,0,.021A38.229,38.229,0,0,1,45,46.974a6.3,6.3,0,0,0-5.184,5.317H31.159ZM46.03,57.7a4.5,4.5,0,0,1-4.489-4.507,4.55,4.55,0,0,1,4.489-4.507,4.507,4.507,0,0,1,0,9.014Z" transform="translate(-2 -20)" fill="#fff"/>
        <ellipse id="Ellipse_313" data-name="Ellipse 313" cx="1.796" cy="1.803" rx="1.796" ry="1.803" transform="translate(42.234 31.389)" fill="#fff"/>
        <path id="Path_1288" data-name="Path 1288" d="M73.969,69.049H70.576a.9.9,0,0,0,0,1.8h3.394a.9.9,0,0,0,0-1.8Z" transform="translate(-39.299 -47.032)" fill="#fff"/>
      </g>
      <g id="Group_1874" data-name="Group 1874" transform="translate(50.59 12.52)">
        <g id="Group_1871" data-name="Group 1871" transform="translate(0 5.797)">
          <path id="Path_1289" data-name="Path 1289" d="M118.876,62.609H115.6a.9.9,0,0,1,0-1.8h3.275a.9.9,0,0,1,0,1.8Z" transform="translate(-114.703 -60.806)" fill="#fff"/>
        </g>
        <g id="Group_1872" data-name="Group 1872" transform="translate(0.479 9.273)">
          <path id="Path_1290" data-name="Path 1290" d="M118.985,72.673a.894.894,0,0,1-.634-.263l-2.316-2.321a.9.9,0,0,1,1.268-1.277l2.316,2.321A.91.91,0,0,1,118.985,72.673Z" transform="translate(-115.771 -68.549)" fill="#fff"/>
        </g>
        <g id="Group_1873" data-name="Group 1873" transform="translate(0.487)">
          <path id="Path_1291" data-name="Path 1291" d="M116.678,52.015a.91.91,0,0,1-.634-1.54l2.316-2.321a.9.9,0,0,1,1.269,0,.9.9,0,0,1,0,1.275l-2.316,2.321A.891.891,0,0,1,116.678,52.015Z" transform="translate(-115.788 -47.891)" fill="#fff"/>
        </g>
      </g>
    </g>
  </g>
</svg>
