<svg id="Group_2052" data-name="Group 2052" xmlns="http://www.w3.org/2000/svg" width="19" height="15.014" viewBox="0 0 19 15.014">
  <g id="Path_1260" data-name="Path 1260" transform="translate(0 -92.805)" fill="none" stroke-miterlimit="10">
    <path d="M0,106.223H.512v1.084a.512.512,0,0,0,.512.512H2.049a.513.513,0,0,0,.513-.513v-1.083h8.2v1.084a.512.512,0,0,0,.512.512H12.3a.513.513,0,0,0,.513-.513v-1.084h.512v-1.247H0Z" stroke="none"/>
    <path d="M 0.2999982833862305 105.275993347168 L 0.2999982833862305 105.9228439331055 L 0.5124387741088867 105.9228439331055 L 0.81243896484375 105.9228439331055 L 0.81243896484375 106.2228393554688 L 0.81243896484375 107.3070755004883 C 0.81243896484375 107.4240264892578 0.9075784683227539 107.5191650390625 1.024528503417969 107.5191650390625 L 2.049179077148438 107.5191650390625 C 2.16657829284668 107.5191650390625 2.262088775634766 107.4236450195313 2.262088775634766 107.3062438964844 L 2.262088775634766 106.2228393554688 L 2.262088775634766 105.9228439331055 L 2.562088966369629 105.9228439331055 L 10.76114845275879 105.9228439331055 L 11.06114864349365 105.9228439331055 L 11.06114864349365 106.2228393554688 L 11.06114864349365 107.3070755004883 C 11.06114864349365 107.4240264892578 11.15628814697266 107.5191650390625 11.27323913574219 107.5191650390625 L 12.29799842834473 107.5191650390625 C 12.41533851623535 107.5191650390625 12.51079845428467 107.4237060546875 12.51079845428467 107.3063735961914 L 12.51079845428467 106.2228393554688 L 12.51079845428467 105.9228439331055 L 12.81079864501953 105.9228439331055 L 13.02323913574219 105.9228439331055 L 13.02323913574219 105.275993347168 L 0.2999982833862305 105.275993347168 M -9.5367431640625e-07 104.9759902954102 L 13.32323837280273 104.9759902954102 L 13.32323837280273 106.2228393554688 L 12.81079864501953 106.2228393554688 L 12.81079864501953 107.3063735961914 C 12.81079864501953 107.5895614624023 12.58118915557861 107.8191604614258 12.29799842834473 107.8191604614258 L 11.27323913574219 107.8191604614258 C 10.99039840698242 107.8191604614258 10.76114845275879 107.5899047851563 10.76114845275879 107.3070755004883 L 10.76114845275879 106.2228393554688 L 2.562088966369629 106.2228393554688 L 2.562088966369629 107.3062438964844 C 2.562088966369629 107.5895614624023 2.332478523254395 107.8191604614258 2.049179077148438 107.8191604614258 L 1.024528503417969 107.8191604614258 C 0.7416982650756836 107.8191604614258 0.5124387741088867 107.5899047851563 0.5124387741088867 107.3070755004883 L 0.5124387741088867 106.2228393554688 L -9.5367431640625e-07 106.2228393554688 L -9.5367431640625e-07 104.9759902954102 Z" stroke="none" fill="#01d0d6"/>
  </g>
  <circle id="Ellipse_307" data-name="Ellipse 307" cx="1.007" cy="1.007" r="1.007" transform="translate(8.021 5.799)" fill="#01ccd3"/>
  <g id="Path_1261" data-name="Path 1261" transform="translate(0 -26.423)" fill="#01ccd3" stroke-miterlimit="10">
    <path d="M 17.38754081726074 41.28643417358398 L 16.93506050109863 41.28643417358398 C 16.77384948730469 41.28643417358398 16.64269065856934 41.15593338012695 16.64269065856934 40.99553298950195 L 16.64269065856934 35.43878173828125 L 16.64269065856934 35.28878402709961 L 16.49268913269043 35.28878402709961 L 16.15840911865234 35.28878402709961 L 16.00840950012207 35.28878402709961 L 16.00840950012207 35.43878173828125 L 16.00840950012207 40.99553298950195 C 16.00840950012207 41.15593338012695 15.8772497177124 41.28643417358398 15.71603965759277 41.28643417358398 L 15.26356029510498 41.28643417358398 C 15.10233974456787 41.28643417358398 14.9711799621582 41.15593338012695 14.9711799621582 40.99553298950195 L 14.9711799621582 35.1056022644043 L 14.9711799621582 33.71396255493164 L 14.9711799621582 31.44038391113281 L 14.9711799621582 31.29038238525391 L 14.82118034362793 31.29038238525391 L 14.57048034667969 31.29038238525391 L 14.4204797744751 31.29038238525391 L 14.4204797744751 31.44038391113281 L 14.4204797744751 33.32855224609375 C 14.4204797744751 33.46235275268555 14.3346004486084 33.58010482788086 14.20678043365479 33.62155151367188 L 12.22863006591797 34.26346206665039 L 12.07925987243652 34.31194305419922 L 12.13453006744385 34.45893478393555 L 12.50588989257813 35.44662475585938 L 12.53269958496094 35.5179443359375 L 12.60610961914063 35.53835296630859 C 12.7962760925293 35.59122085571289 12.93997097015381 35.63434600830078 13.02861976623535 35.6617317199707 L 13.02861976623535 37.97499465942383 L 0.1500000059604645 37.97499465942383 L 0.1500000059604645 35.66174697875977 C 0.2386989742517471 35.63436508178711 0.3825365602970123 35.59123992919922 0.5730199813842773 35.53837203979492 L 0.6464700102806091 35.51798248291016 L 0.6733099818229675 35.44663238525391 L 2.272788286209106 31.19393157958984 C 2.8124098777771 31.10588836669922 5.658793926239014 30.6488037109375 6.590010166168213 30.6488037109375 C 7.520952224731445 30.6488037109375 10.36697196960449 31.10584449768066 10.90685653686523 31.19393348693848 L 11.81140041351318 33.60003280639648 L 11.86182022094727 33.7341423034668 L 11.99810028076172 33.68993377685547 L 13.69727039337158 33.13863372802734 L 13.80097961425781 33.10498428344727 L 13.80097961425781 32.99595260620117 L 13.80097961425781 31.44038391113281 L 13.80097961425781 31.19050216674805 C 13.80097961425781 30.58423233032227 14.29607963562012 30.09100341796875 14.90464019775391 30.09100341796875 L 15.15534973144531 30.09100341796875 L 15.44982242584229 30.09100341796875 C 15.47413158416748 30.42577743530273 15.61013317108154 30.87497329711914 15.85501956939697 31.42865371704102 L 16.06937026977539 31.91329383850098 L 16.14082908630371 31.38821220397949 L 16.21983337402344 30.80770874023438 C 16.2547721862793 30.81235694885254 16.2899341583252 30.81469345092773 16.32519912719727 30.81469345092773 C 16.3605842590332 30.81469345092773 16.39579200744629 30.81235694885254 16.43071937561035 30.80771064758301 L 16.50979995727539 31.38833236694336 L 16.58127021789551 31.91308212280273 L 16.61442947387695 31.83815765380859 L 16.61442947387695 31.9144229888916 L 16.61442947387695 32.06442260742188 L 16.76442909240723 32.06442260742188 L 17.59140968322754 32.06442260742188 L 17.67991065979004 32.06442260742188 L 17.67991065979004 33.71396255493164 L 17.67991065979004 35.1056022644043 L 17.67991065979004 40.99553298950195 C 17.67991065979004 41.15593338012695 17.54874992370605 41.28643417358398 17.38754081726074 41.28643417358398 Z M 1.941570043563843 35.70964431762695 C 1.87608003616333 35.70964431762695 1.809669971466064 35.71600341796875 1.744179964065552 35.72854232788086 C 1.347270011901855 35.80454254150391 1.030369997024536 36.1217041015625 0.9556199908256531 36.51774215698242 C 0.8993399739265442 36.81576156616211 0.9764299988746643 37.11865234375 1.167119979858398 37.3487434387207 C 1.358700037002563 37.57988357543945 1.641000032424927 37.71244430541992 1.941650032997131 37.71244430541992 C 2.005749940872192 37.71244430541992 2.070770025253296 37.70636367797852 2.134919881820679 37.69438171386719 C 2.532710075378418 37.6199836730957 2.850950002670288 37.30368423461914 2.92684006690979 36.90729141235352 C 2.984060049057007 36.60891342163086 2.907469987869263 36.30538177490234 2.716700077056885 36.07455444335938 C 2.525049924850464 35.84264373779297 2.242520093917847 35.70964431762695 1.941570043563843 35.70964431762695 Z M 11.23701953887939 35.70967483520508 C 11.17341041564941 35.70967483520508 11.10888004302979 35.71565246582031 11.04520034790039 35.72745132446289 C 10.6476001739502 35.80112457275391 10.32900047302246 36.1168212890625 10.25240993499756 36.51304244995117 C 10.19452953338623 36.8116340637207 10.27071952819824 37.11557388305664 10.46146011352539 37.34683227539063 C 10.65307998657227 37.57916259765625 10.93575000762939 37.7124137878418 11.23698997497559 37.7124137878418 C 11.30282974243164 37.7124137878418 11.36958026885986 37.70598220825195 11.43540954589844 37.69330215454102 C 11.83213996887207 37.61702346801758 12.14867973327637 37.29972457885742 12.22301959991455 36.90375137329102 C 12.27902984619141 36.6056022644043 12.20174980163574 36.302734375 12.01099967956543 36.07282257080078 C 11.81952953338623 35.84203338623047 11.53742980957031 35.70967483520508 11.23701953887939 35.70967483520508 Z M 6.589890003204346 31.35989379882813 C 5.776700019836426 31.35989379882813 3.546329975128174 31.70741271972656 2.88211989402771 31.81392288208008 L 2.796190023422241 31.82770347595215 L 2.765510082244873 31.90914344787598 L 1.603670001029968 34.99225234985352 L 1.527209997177124 35.19514465332031 L 1.744029998779297 35.19514465332031 L 1.75612998008728 35.19514465332031 L 1.769850015640259 35.19291305541992 C 1.895840048789978 35.17245483398438 4.875030040740967 34.69179153442383 6.589200019836426 34.69167327880859 C 8.302909851074219 34.69167327880859 11.28108024597168 35.17233276367188 11.40701961517334 35.19279479980469 L 11.41897010803223 35.19473266601563 L 11.4328498840332 35.19502258300781 L 11.64951992034912 35.19502258300781 L 11.57324981689453 34.99222183227539 L 10.41349983215332 31.9083137512207 L 10.38280963897705 31.82669258117676 L 10.29669952392578 31.8129825592041 C 9.441470146179199 31.67675399780273 7.368249893188477 31.35989379882813 6.589890003204346 31.35989379882813 Z M 18.54032897949219 35.24721145629883 C 18.54031372070313 35.24721145629883 18.54030609130859 35.24721145629883 18.54029083251953 35.24721145629883 C 18.51860046386719 35.24721145629883 18.49646949768066 35.24499130249023 18.47451972961426 35.24060440063477 C 18.33548927307129 35.21278381347656 18.23061943054199 35.07570266723633 18.23061943054199 34.9217643737793 L 18.23061943054199 31.44038391113281 L 18.23061943054199 31.29038238525391 L 18.08061981201172 31.29038238525391 L 17.82991027832031 31.29038238525391 L 17.67991065979004 31.29038238525391 L 17.67991065979004 31.41966247558594 L 17.59140968322754 31.41966247558594 L 16.79963874816895 31.41966247558594 C 17.04210090637207 30.87024307250977 17.17677307128906 30.42416191101074 17.20093154907227 30.09100341796875 L 17.49551963806152 30.09100341796875 L 17.7463493347168 30.09100341796875 C 18.35490036010742 30.09100341796875 18.85000038146973 30.58423233032227 18.85000038146973 31.19050216674805 L 18.85000038146973 31.2738037109375 L 18.85000038146973 31.44038391113281 L 18.85000038146973 34.93902206420898 C 18.85000038146973 35.02123260498047 18.81785011291504 35.09855270385742 18.75946044921875 35.15676116943359 C 18.70095062255859 35.21509170532227 18.62313079833984 35.24721145629883 18.54032897949219 35.24721145629883 Z" stroke="none"/>
    <path d="M 14.90464019775391 30.24100494384766 C 14.3787899017334 30.24100494384766 13.9509801864624 30.66694259643555 13.9509801864624 31.19050216674805 L 13.9509801864624 31.44038391113281 L 13.9509801864624 32.99595260620117 L 13.9509801864624 33.21401214599609 L 13.74355983734131 33.28131484985352 L 12.04438972473145 33.83261489868164 L 11.77182960510254 33.92104339599609 L 11.67099952697754 33.65282440185547 L 10.79702949523926 31.32804870605469 C 10.09486865997314 31.2143440246582 7.468554496765137 30.79880142211914 6.590009689331055 30.79880142211914 C 5.711210250854492 30.79880142211914 3.084565162658691 31.21438217163086 2.382604598999023 31.32805633544922 L 0.8137092590332031 35.49944305419922 L 0.760040283203125 35.64213180541992 L 0.6131401062011719 35.68290328979492 C 0.4872798919677734 35.71783447265625 0.3820667266845703 35.74844360351563 0.2999992370605469 35.77296829223633 L 0.2999992370605469 37.82499313354492 L 1.648578643798828 37.82499313354492 C 1.416885375976563 37.76460266113281 1.207975387573242 37.63309478759766 1.051630020141602 37.44445419311523 C 0.8323402404785156 37.17987442016602 0.7436294555664063 36.83194351196289 0.8082199096679688 36.48992156982422 C 0.8943004608154297 36.03388214111328 1.259090423583984 35.668701171875 1.715980529785156 35.58121490478516 C 1.790739059448242 35.56690216064453 1.866640090942383 35.55964279174805 1.941570281982422 35.55964279174805 C 2.287410736083984 35.55964279174805 2.612079620361328 35.71249389648438 2.832330703735352 35.97900390625 C 3.051699638366699 36.24442291259766 3.139829635620117 36.59309387207031 3.074170112609863 36.93551254272461 C 2.991611480712891 37.36658477783203 2.660236358642578 37.71540069580078 2.237958908081055 37.82499313354492 L 10.94420719146729 37.82499313354492 C 10.71178531646729 37.7643928527832 10.50231647491455 37.63211822509766 10.34574031829834 37.44228363037109 C 10.12639999389648 37.17634201049805 10.03872013092041 36.82722473144531 10.10513019561768 36.48457336425781 C 10.19332981109619 36.02830123901367 10.56013965606689 35.66477203369141 11.01788997650146 35.57996368408203 C 11.09055995941162 35.56650161743164 11.1642894744873 35.55967330932617 11.23702049255371 35.55967330932617 C 11.582200050354 35.55967330932617 11.90637969970703 35.7117919921875 12.12644004821777 35.97704315185547 C 12.34577941894531 36.24141311645508 12.43472003936768 36.58928298950195 12.37045001983643 36.93143463134766 C 12.28920364379883 37.36412811279297 11.95696258544922 37.71522903442383 11.53303050994873 37.82499313354492 L 12.87862014770508 37.82499313354492 L 12.87862014770508 35.77293014526367 C 12.796630859375 35.74840545654297 12.69157218933105 35.71780014038086 12.56593990325928 35.6828727722168 L 12.41910934448242 35.64205169677734 L 12.36548042297363 35.49941253662109 L 11.99411964416504 34.51172256469727 L 11.88359069824219 34.21773147583008 L 12.18233013153076 34.12079238891602 L 14.16051006317139 33.47887420654297 C 14.22628974914551 33.45754241943359 14.27048015594482 33.39713287353516 14.27048015594482 33.32855224609375 L 14.27048015594482 31.44038391113281 L 14.27048015594482 31.14038467407227 L 14.57048034667969 31.14038467407227 L 14.82118034362793 31.14038467407227 L 15.12117958068848 31.14038467407227 L 15.12117958068848 31.44038391113281 L 15.12117958068848 33.71396255493164 L 15.12117958068848 35.1056022644043 L 15.12117958068848 40.99553298950195 C 15.12117958068848 41.07190322875977 15.18638038635254 41.13642120361328 15.26356029510498 41.13642120361328 L 15.71603965759277 41.13642120361328 C 15.79321002960205 41.13642120361328 15.8584098815918 41.07190322875977 15.8584098815918 40.99553298950195 L 15.8584098815918 35.43878173828125 L 15.8584098815918 35.1387825012207 L 16.15840911865234 35.1387825012207 L 16.49269104003906 35.1387825012207 L 16.79269027709961 35.1387825012207 L 16.79269027709961 35.43878173828125 L 16.79269027709961 40.99553298950195 C 16.79269027709961 41.07190322875977 16.85788917541504 41.13642120361328 16.93506050109863 41.13642120361328 L 17.38754081726074 41.13642120361328 C 17.4647102355957 41.13642120361328 17.52990913391113 41.07190322875977 17.52990913391113 40.99553298950195 L 17.52990913391113 35.1056022644043 L 17.52990913391113 33.71396255493164 L 17.52990913391113 32.21442413330078 L 16.76443099975586 32.21442413330078 L 16.61192893981934 32.21442413330078 L 16.50411033630371 32.45804214477539 L 16.47092819213867 32.21442413330078 L 16.46442985534668 32.21442413330078 L 16.46442985534668 32.16671371459961 L 16.36116981506348 31.40858459472656 L 16.32529067993164 31.14516067504883 L 16.28945922851563 31.40844345092773 L 16.14653968811035 32.45861434936523 L 15.71784019470215 31.48933410644531 C 15.49814224243164 30.99261474609375 15.36342334747314 30.57424163818359 15.31558132171631 30.24100494384766 L 15.15534019470215 30.24100494384766 L 14.90464019775391 30.24100494384766 M 11.86618041992188 35.34502410888672 L 11.4328498840332 35.34502410888672 L 11.4068603515625 35.34473419189453 L 11.38295936584473 35.34085464477539 C 11.2575101852417 35.32047271728516 8.290940284729004 34.8416748046875 6.58922004699707 34.8416748046875 C 4.88700008392334 34.84179306030273 1.919399261474609 35.32059478759766 1.793899536132813 35.34097290039063 L 1.768230438232422 35.34514236450195 L 1.744029998779297 35.34514236450195 L 1.310380935668945 35.34514236450195 L 1.463300704956055 34.93935394287109 L 2.625139236450195 31.85624313354492 L 2.686519622802734 31.69337463378906 L 2.858369827270508 31.66581344604492 C 3.713230133056641 31.52873229980469 5.78810977935791 31.20989227294922 6.589889526367188 31.20989227294922 C 7.378970146179199 31.20989227294922 9.461540222167969 31.52805328369141 10.32028961181641 31.66485214233398 L 10.49250984191895 31.69228363037109 L 10.55389976501465 31.85551452636719 L 11.71364974975586 34.93942260742188 L 11.86618041992188 35.34502410888672 M 17.33518600463867 30.24100494384766 C 17.29457855224609 30.52400970458984 17.19131660461426 30.86832046508789 17.0266056060791 31.2696647644043 L 17.52990913391113 31.2696647644043 L 17.52990913391113 31.14038467407227 L 17.82991027832031 31.14038467407227 L 18.08061981201172 31.14038467407227 L 18.38061904907227 31.14038467407227 L 18.38061904907227 31.44038391113281 L 18.38061904907227 34.9217643737793 C 18.38061904907227 35.00561141967773 18.43365097045898 35.07945251464844 18.50387954711914 35.09350204467773 C 18.51619911193848 35.09596252441406 18.52845001220703 35.09721374511719 18.54027938842773 35.09721374511719 C 18.62834930419922 35.09721374511719 18.70000076293945 35.02625274658203 18.70000076293945 34.93902206420898 L 18.70000076293945 31.44038391113281 L 18.70000076293945 31.2738037109375 L 18.70000076293945 31.19050216674805 C 18.70000076293945 30.66694259643555 18.27219009399414 30.24100494384766 17.7463493347168 30.24100494384766 L 17.49551963806152 30.24100494384766 L 17.33518600463867 30.24100494384766 M 14.90464019775391 29.94100189208984 L 15.15534019470215 29.94100189208984 L 15.59689998626709 29.94100189208984 C 15.59667015075684 29.95629119873047 15.59585952758789 29.96985244750977 15.59585952758789 29.98594284057617 C 15.59585952758789 30.37935256958008 15.79996013641357 30.93333435058594 15.99219989776611 31.36798477172852 L 16.09366989135742 30.62240219116211 C 16.16828918457031 30.65020370483398 16.24674987792969 30.6646842956543 16.32519912719727 30.6646842956543 L 16.32531929016113 30.6646842956543 L 16.32566070556641 30.6646842956543 C 16.40399932861328 30.6646842956543 16.48233985900879 30.65020370483398 16.55685043334961 30.62228393554688 L 16.6584300994873 31.36809158325195 C 16.85079002380371 30.93345260620117 17.05488967895508 30.37935256958008 17.05488967895508 29.98594284057617 C 17.05488967895508 29.96985244750977 17.05419921875 29.95629119873047 17.0539608001709 29.94100189208984 L 17.49551963806152 29.94100189208984 L 17.7463493347168 29.94100189208984 C 18.43581962585449 29.94100189208984 19 30.50331497192383 19 31.19050216674805 L 19 31.2738037109375 L 19 31.44038391113281 L 19 34.93902206420898 C 19 35.19199371337891 18.79420471191406 35.397216796875 18.540283203125 35.397216796875 C 18.50919723510742 35.397216796875 18.47735786437988 35.39413833618164 18.44511985778809 35.38769149780273 C 18.22858047485352 35.34436416625977 18.08061981201172 35.14186477661133 18.08061981201172 34.9217643737793 L 18.08061981201172 31.44038391113281 L 17.82991027832031 31.44038391113281 L 17.82991027832031 33.71396255493164 L 17.82991027832031 35.1056022644043 L 17.82991027832031 40.99553298950195 C 17.82991027832031 41.23798370361328 17.63080978393555 41.43642425537109 17.38754081726074 41.43642425537109 L 16.93506050109863 41.43642425537109 C 16.6917896270752 41.43642425537109 16.49269104003906 41.23798370361328 16.49269104003906 40.99553298950195 L 16.49269104003906 35.43878173828125 L 16.15840911865234 35.43878173828125 L 16.15840911865234 40.99553298950195 C 16.15840911865234 41.23798370361328 15.95931053161621 41.43642425537109 15.71603965759277 41.43642425537109 L 15.26356029510498 41.43642425537109 C 15.02029037475586 41.43642425537109 14.82118034362793 41.23798370361328 14.82118034362793 40.99553298950195 L 14.82118034362793 35.1056022644043 L 14.82118034362793 33.71396255493164 L 14.82118034362793 31.44038391113281 L 14.57048034667969 31.44038391113281 L 14.57048034667969 33.32855224609375 C 14.57048034667969 33.52698135375977 14.44239044189453 33.70284271240234 14.25304985046387 33.76424407958984 L 12.27493000030518 34.40614318847656 L 12.64628982543945 35.39383316040039 C 12.98753929138184 35.48870468139648 13.17861938476563 35.55184173583984 13.17861938476563 35.55184173583984 L 13.17861938476563 38.12499237060547 L 0 38.12499237060547 L 0 35.55184173583984 C 0 35.55184173583984 0.1910800933837891 35.48870468139648 0.5329093933105469 35.39383316040039 L 2.162919998168945 31.05995178222656 C 2.163040161132813 31.05995178222656 5.546500205993652 30.49880218505859 6.590009689331055 30.49880218505859 C 7.632820129394531 30.49880218505859 11.01663017272949 31.05995178222656 11.01673984527588 31.05995178222656 L 11.95180988311768 33.5472526550293 L 13.65097999572754 32.99595260620117 L 13.65097999572754 31.44038391113281 L 13.65097999572754 31.19050216674805 C 13.65097999572754 30.50331497192383 14.21516036987305 29.94100189208984 14.90464019775391 29.94100189208984 Z M 11.4328498840332 35.04502487182617 L 10.27309989929199 31.96111297607422 C 9.49785041809082 31.83762359619141 7.372119903564453 31.50989151000977 6.589889526367188 31.50989151000977 C 5.807080268859863 31.50989151000977 3.681699752807617 31.83762359619141 2.90587043762207 31.96203231811523 L 1.744029998779297 35.04514312744141 C 1.744380950927734 35.04514312744141 4.818659782409668 34.54179382324219 6.589200019836426 34.54167175292969 C 8.359259605407715 34.54167175292969 11.43249988555908 35.04502487182617 11.4328498840332 35.04502487182617 Z M 17.59140968322754 31.91442489624023 L 17.59140968322754 31.56966400146484 L 16.76443099975586 31.56966400146484 L 16.76443099975586 31.91442489624023 L 17.59140968322754 31.91442489624023 Z M 1.941646575927734 37.56244659423828 C 1.995840072631836 37.56244659423828 2.051246643066406 37.55741882324219 2.107370376586914 37.54693222045898 C 2.443729400634766 37.48402404785156 2.715360641479492 37.214111328125 2.779520034790039 36.87908172607422 C 2.883855819702148 36.33501815795898 2.468069076538086 35.85964202880859 1.941572189331055 35.85964202880859 C 1.88624382019043 35.85964202880859 1.829687118530273 35.86489105224609 1.772390365600586 35.87586212158203 C 1.436599731445313 35.94016265869141 1.166250228881836 36.21054458618164 1.103019714355469 36.54556274414063 C 1.000484466552734 37.08848190307617 1.415121078491211 37.56244659423828 1.941646575927734 37.56244659423828 Z M 11.23699188232422 37.56240844726563 C 11.29259872436523 37.56240844726563 11.34945392608643 37.55710220336914 11.40705013275146 37.54601287841797 C 11.74271965026855 37.48147201538086 12.01272010803223 37.21097183227539 12.07559967041016 36.87607192993164 C 12.17757034301758 36.33320617675781 11.76347351074219 35.85967636108398 11.23702049255371 35.85967636108398 C 11.18322372436523 35.85967636108398 11.12824249267578 35.86462020874023 11.07252979278564 35.87494277954102 C 10.73616027832031 35.93726348876953 10.46442031860352 36.20660400390625 10.39968013763428 36.54151153564453 C 10.2941198348999 37.08609008789063 10.71007347106934 37.56240844726563 11.23699188232422 37.56240844726563 Z" stroke="none" fill="#01ccd3"/>
  </g>
  <path id="Path_1262" data-name="Path 1262" d="M132.663,1.525V.48S132.4,0,131.469,0s-1.194.48-1.194.48V1.525a2.4,2.4,0,0,1,2.388,0Z" transform="translate(-115.175)" fill="#01ccd3"/>
  <path id="Path_1263" data-name="Path 1263" d="M137.749,29.8l-.11.436.013.021a.482.482,0,0,0,.636,0l.013-.021-.11-.436h-.442Z" transform="translate(-121.674 -26.336)" fill="#01ccd3"/>
  <g id="Path_1264" data-name="Path 1264" transform="translate(-115.255 -6.025)" fill="none" stroke-miterlimit="10">
    <path d="M132.689,7.68a1.185,1.185,0,1,0-1.14,1.509A1.189,1.189,0,0,0,132.689,7.68Z" stroke="none"/>
    <path d="M 131.5489807128906 7.026997566223145 C 131.1986999511719 7.026997566223145 130.7405090332031 7.211527824401855 130.6019439697266 7.731597900390625 C 130.5195007324219 8.040937423706055 130.5801849365234 8.358878135681152 130.7684478759766 8.603908538818359 C 130.9564361572266 8.84854793548584 131.2409210205078 8.988857269287109 131.5489654541016 8.988857269287109 C 131.8570098876953 8.988857269287109 132.1414947509766 8.84854793548584 132.3294830322266 8.603908538818359 C 132.5177459716797 8.358878135681152 132.5784454345703 8.040927886962891 132.4960021972656 7.73157787322998 C 132.3574371337891 7.211527824401855 131.8992462158203 7.026997566223145 131.5489807128906 7.026997566223145 M 131.5489654541016 6.827000617980957 C 132.0433502197266 6.827000617980957 132.5377197265625 7.111362457275391 132.6892547607422 7.680088043212891 C 132.9007415771484 8.473608016967773 132.3083953857422 9.188858032226563 131.5489654541016 9.188858032226563 C 130.7895355224609 9.188858032226563 130.1971893310547 8.473608016967773 130.40869140625 7.680088043212891 C 130.5602264404297 7.111362457275391 131.0545959472656 6.827000617980957 131.5489654541016 6.827000617980957 Z" stroke="none" fill="#01d0d6"/>
  </g>
</svg>
