<svg id="Group_2051" data-name="Group 2051" xmlns="http://www.w3.org/2000/svg" width="21.1" height="12.47" viewBox="0 0 21.1 12.47">
  <g id="Group_1840" data-name="Group 1840">
    <path id="Path_1271" data-name="Path 1271" d="M14.008,44.585,12.523,46a.054.054,0,0,0,.038.094h.516l-.538,1.2a.054.054,0,0,0,.087.061l1.486-1.419a.054.054,0,0,0-.038-.093h-.516l.538-1.2A.054.054,0,0,0,14.008,44.585Z" transform="translate(-10.305 -43.39)" fill="#01d0d6"/>
    <g id="Group_1837" data-name="Group 1837" transform="translate(5.57 3.148)">
      <path id="Path_1272" data-name="Path 1272" d="M23.017,59.295a1.182,1.182,0,0,0-1.18-1.181v.71a.471.471,0,0,1,.471.471Z" transform="translate(-21.837 -55.192)" fill="#01d0d6"/>
      <path id="Path_1273" data-name="Path 1273" d="M25.317,52.061c0-.01-.006-.02-.009-.03s-.006-.024-.011-.036a.306.306,0,0,0-.018-.034.279.279,0,0,0-.014-.027.341.341,0,0,0-.044-.055l-.4-.4a.363.363,0,0,0-.057-.046.53.53,0,0,0-.041-.7l-.352-.352a.192.192,0,0,0-.273,0l-.078.078-.4-.4a.125.125,0,0,0-.177.177l.4.4-.368.369-.4-.4a.125.125,0,0,0-.177.177l.4.4-.08.079a.193.193,0,0,0,0,.273l.352.352a.531.531,0,0,0,.7.04.341.341,0,0,0,.046.057l.294.293v2.837a.471.471,0,0,1-.942,0v-.99h-.71v.99a1.181,1.181,0,0,0,2.362,0V52.13A.376.376,0,0,0,25.317,52.061Z" transform="translate(-22.491 -50.022)" fill="#01d0d6"/>
    </g>
    <path id="Path_1274" data-name="Path 1274" d="M12.027,52.961H12V42a.694.694,0,0,0-.691-.691H7.532A.694.694,0,0,0,6.84,42V52.961H6.818a.407.407,0,1,0,0,.814h5.209a.407.407,0,1,0,0-.814ZM7.486,42.285a.34.34,0,0,1,.335-.335h3.2a.34.34,0,0,1,.335.335v3.2a.34.34,0,0,1-.335.335h-3.2a.34.34,0,0,1-.335-.335Z" transform="translate(-6.411 -41.304)" fill="#01d0d6"/>
  </g>
  <g id="Group_1839" data-name="Group 1839" transform="translate(9 2.537)">
    <g id="Path_1260" data-name="Path 1260" transform="translate(0 -97.625)" fill="none" stroke-miterlimit="10">
      <path d="M0,106.108H.465v.985a.465.465,0,0,0,.465.465h.931a.466.466,0,0,0,.466-.466v-.984H9.773v.985a.465.465,0,0,0,.465.465h.931a.466.466,0,0,0,.466-.466v-.984H12.1v-1.132H0Z" stroke="none"/>
      <path d="M 0.2999963760375977 105.275993347168 L 0.2999963760375977 105.8083724975586 L 0.4653959274291992 105.8083724975586 L 0.7653961181640625 105.8083724975586 L 0.7653961181640625 106.1083755493164 L 0.7653961181640625 107.0930709838867 C 0.7653961181640625 107.1841049194336 0.8394460678100586 107.2581558227539 0.930476188659668 107.2581558227539 L 1.861056327819824 107.2581558227539 C 1.952495574951172 107.2581558227539 2.026885986328125 107.1837615966797 2.026885986328125 107.0923233032227 L 2.026885986328125 106.1083755493164 L 2.026885986328125 105.8083724975586 L 2.326886177062988 105.8083724975586 L 9.773265838623047 105.8083724975586 L 10.07326602935791 105.8083724975586 L 10.07326602935791 106.1083755493164 L 10.07326602935791 107.0930709838867 C 10.07326602935791 107.1841049194336 10.14731597900391 107.2581558227539 10.23834609985352 107.2581558227539 L 11.16903591156006 107.2581558227539 C 11.26041603088379 107.2581558227539 11.33475589752197 107.1838150024414 11.33475589752197 107.0924453735352 L 11.33475589752197 106.1083755493164 L 11.33475589752197 105.8083724975586 L 11.63475608825684 105.8083724975586 L 11.80015563964844 105.8083724975586 L 11.80015563964844 105.275993347168 L 0.2999963760375977 105.275993347168 M -3.814697265625e-06 104.9759979248047 L 12.1001558303833 104.9759979248047 L 12.1001558303833 106.1083755493164 L 11.63475608825684 106.1083755493164 L 11.63475608825684 107.0924453735352 C 11.63475608825684 107.3496322631836 11.42622566223145 107.5581512451172 11.16903591156006 107.5581512451172 L 10.23834609985352 107.5581512451172 C 9.981475830078125 107.5581512451172 9.773265838623047 107.3499450683594 9.773265838623047 107.0930709838867 L 9.773265838623047 106.1083755493164 L 2.326886177062988 106.1083755493164 L 2.326886177062988 107.0923233032227 C 2.326886177062988 107.3496322631836 2.118355751037598 107.5581512451172 1.861056327819824 107.5581512451172 L 0.930476188659668 107.5581512451172 C 0.6736059188842773 107.5581512451172 0.4653959274291992 107.3499450683594 0.4653959274291992 107.0930709838867 L 0.4653959274291992 106.1083755493164 L -3.814697265625e-06 106.1083755493164 L -3.814697265625e-06 104.9759979248047 Z" stroke="none" fill="#01d0d6"/>
    </g>
    <circle id="Ellipse_307" data-name="Ellipse 307" cx="0.914" cy="0.914" r="0.914" transform="translate(7.285 1.565)" fill="#01ccd3"/>
    <g id="Path_1261" data-name="Path 1261" transform="translate(0 -30.499)" fill="#01ccd3" stroke-miterlimit="10">
      <path d="M 11.81881618499756 37.27489852905273 L 0.1499964743852615 37.27489852905273 L 0.1499964743852615 35.19795227050781 C 0.2310467809438705 35.17302322387695 0.3580390810966492 35.13509368896484 0.5241164565086365 35.0890007019043 L 0.597556471824646 35.06860733032227 L 0.6243964433670044 34.99726104736328 L 2.074229955673218 31.14242935180664 C 2.583229064941406 31.05945205688477 5.144794464111328 30.64879989624023 5.985036373138428 30.64879989624023 C 6.824717998504639 30.64879989624023 9.386472702026367 31.05945014953613 9.895516395568848 31.14242935180664 L 10.7142162322998 33.3201789855957 L 11.0076961517334 34.10025787353516 L 11.34494686126709 34.99724960327148 L 11.3717565536499 35.06856918334961 L 11.44516658782959 35.0889778137207 C 11.6109619140625 35.13507461547852 11.73781585693359 35.17300033569336 11.81881618499756 35.19793319702148 L 11.81881618499756 37.27489852905273 Z M 1.763326525688171 35.21751022338867 C 1.702986478805542 35.21751022338867 1.641806483268738 35.22336959838867 1.581476449966431 35.23492050170898 C 1.215486526489258 35.30500030517578 0.923286497592926 35.59745025634766 0.8543664813041687 35.96263885498047 C 0.8024864792823792 36.23733901977539 0.8735664486885071 36.51657104492188 1.049376487731934 36.72869873046875 C 1.225986480712891 36.94178009033203 1.486236453056335 37.06398773193359 1.763386487960815 37.06398773193359 C 1.822456479072571 37.06398773193359 1.882366418838501 37.05838775634766 1.941456437110901 37.04734802246094 C 2.308246374130249 36.97876739501953 2.601686477661133 36.68709945678711 2.671676397323608 36.32157897949219 C 2.724426507949829 36.04653930664063 2.65381646156311 35.76671981811523 2.477936506271362 35.55390930175781 C 2.301256418228149 35.34011840820313 2.040786504745483 35.21751022338867 1.763326525688171 35.21751022338867 Z M 10.20545673370361 35.217529296875 C 10.14684677124023 35.217529296875 10.0873966217041 35.22303771972656 10.02873611450195 35.23390960693359 C 9.662106513977051 35.30184936523438 9.36833667755127 35.59296035766602 9.297706604003906 35.95830917358398 C 9.244356155395508 36.23353958129883 9.314616203308105 36.51371765136719 9.490466117858887 36.7269401550293 C 9.667126655578613 36.94112014770508 9.927716255187988 37.06396102905273 10.20541667938232 37.06396102905273 C 10.26607608795166 37.06396102905273 10.32758617401123 37.05804061889648 10.38822650909424 37.04636001586914 C 10.75403690338135 36.97603988647461 11.04590606689453 36.68344879150391 11.11446666717529 36.31830978393555 C 11.16609668731689 36.04348754882813 11.09484672546387 35.76429748535156 10.91897678375244 35.55233001708984 C 10.74246692657471 35.33955764770508 10.48239612579346 35.217529296875 10.20545673370361 35.217529296875 Z M 5.984936237335205 31.2670783996582 C 5.245336532592773 31.2670783996582 3.218836545944214 31.58282852172852 2.6153564453125 31.67959976196289 L 2.529426574707031 31.69337844848633 L 2.498746395111084 31.77481842041016 L 1.44356644153595 34.57489013671875 L 1.367106437683105 34.77777862548828 L 1.583926439285278 34.77777862548828 L 1.596026420593262 34.77777862548828 L 1.609596490859985 34.77557754516602 C 1.723976492881775 34.75699996948242 4.428666591644287 34.32064056396484 5.984306335449219 34.32053756713867 C 7.53986644744873 34.32053756713867 10.24334621429443 34.75690078735352 10.357666015625 34.77547073364258 L 10.36961650848389 34.77742004394531 L 10.38329601287842 34.77766799926758 L 10.59996604919434 34.77766799926758 L 10.52369689941406 34.57487106323242 L 9.470426559448242 31.77406883239746 L 9.439736366271973 31.69244956970215 L 9.353626251220703 31.67873954772949 C 8.576556205749512 31.55495834350586 6.692776679992676 31.2670783996582 5.984936237335205 31.2670783996582 Z" stroke="none"/>
      <path d="M 5.985036373138428 30.79879760742188 C 5.195371627807617 30.79879760742188 2.84376049041748 31.16987991333008 2.184043884277344 31.27656173706055 L 0.764796257019043 35.05006790161133 L 0.7111263275146484 35.1927604675293 L 0.5642261505126953 35.23352813720703 C 0.4599189758300781 35.26248168945313 0.3712568283081055 35.28815460205078 0.2999963760375977 35.309326171875 L 0.2999963760375977 37.12490081787109 L 1.333296775817871 37.12490081787109 C 1.180379867553711 37.05844879150391 1.043322563171387 36.95644378662109 0.9338960647583008 36.82441711425781 C 0.7294864654541016 36.57779693603516 0.6467761993408203 36.2535400390625 0.7069664001464844 35.93482971191406 C 0.7872066497802734 35.50963973999023 1.127306938171387 35.16915893554688 1.55324649810791 35.08760070800781 C 1.622836112976074 35.07426834106445 1.693516731262207 35.06750869750977 1.763326644897461 35.06750869750977 C 2.085676193237305 35.06750869750977 2.388286590576172 35.20996856689453 2.59356689453125 35.45834732055664 C 2.798036575317383 35.70576095581055 2.880196571350098 36.03070831298828 2.81900691986084 36.34978866577148 C 2.752596855163574 36.69662857055664 2.513440132141113 36.98634338378906 2.196126937866211 37.12490081787109 L 9.77565860748291 37.12490081787109 C 9.622074127197266 37.0581169128418 9.484472274780273 36.95541381835938 9.374756813049316 36.8223876953125 C 9.170296669006348 36.57450103759766 9.088546752929688 36.24911880493164 9.150426864624023 35.92984008789063 C 9.232666015625 35.50444793701172 9.57464599609375 35.16550064086914 10.00144672393799 35.08641052246094 C 10.06911659240723 35.07387924194336 10.13775634765625 35.06752777099609 10.20545673370361 35.06752777099609 C 10.52716636657715 35.06752777099609 10.82931613922119 35.20932006835938 11.03442668914795 35.45655059814453 C 11.23887634277344 35.70298004150391 11.32178688049316 36.02717971801758 11.26189613342285 36.34598922729492 C 11.19650363922119 36.69425964355469 10.95668411254883 36.98583984375 10.63807106018066 37.12490081787109 L 11.66881656646729 37.12490081787109 L 11.66881656646729 35.30928802490234 C 11.59762859344482 35.28811645507813 11.50910377502441 35.26244735717773 11.40498638153076 35.23349761962891 L 11.25816631317139 35.19268035888672 L 11.20453643798828 35.0500373840332 L 10.86729621887207 34.15307998657227 L 10.57381629943848 33.37297058105469 L 9.785696029663086 31.27656173706055 C 9.125926971435547 31.16987991333008 6.774176597595215 30.79879760742188 5.985036373138428 30.79879760742188 M 10.81662654876709 34.92766952514648 L 10.38329696655273 34.92766952514648 L 10.35750675201416 34.92741775512695 L 10.3336067199707 34.92353057861328 C 10.21977615356445 34.9050407409668 7.527896404266357 34.47053909301758 5.984316349029541 34.47053909301758 C 4.44063663482666 34.47063827514648 1.747536659240723 34.9051399230957 1.633646011352539 34.92363739013672 L 1.608126640319824 34.92778015136719 L 1.583926200866699 34.92778015136719 L 1.150276184082031 34.92778015136719 L 1.303196907043457 34.52198791503906 L 2.358376502990723 31.72192001342773 L 2.419756889343262 31.55904769897461 L 2.591606140136719 31.53149795532227 C 3.368556022644043 31.40689086914063 5.254536628723145 31.11708068847656 5.984936237335205 31.11708068847656 C 6.703696250915527 31.11708068847656 8.596706390380859 31.40626907348633 9.377216339111328 31.53060913085938 L 9.549446105957031 31.55804061889648 L 9.61082649230957 31.72126770019531 L 10.66409683227539 34.52206802368164 L 10.81662654876709 34.92766952514648 M 5.985036373138428 30.49879837036133 C 6.932126522064209 30.49879837036133 10.00528621673584 31.00843811035156 10.00539684295654 31.00843811035156 L 10.85462665557861 33.26739883422852 L 11.14808654785156 34.04743957519531 L 11.48534679412842 34.9444580078125 C 11.7952766418457 35.0306282043457 11.96881675720215 35.08797073364258 11.96881675720215 35.08797073364258 L 11.96881675720215 37.42490005493164 L -3.814697265625e-06 37.42490005493164 L -3.814697265625e-06 35.08797073364258 C -3.814697265625e-06 35.08797073364258 0.1735363006591797 35.0306282043457 0.4839963912963867 34.9444580078125 L 1.964366912841797 31.00843811035156 C 1.964476585388184 31.00843811035156 5.037326335906982 30.49879837036133 5.985036373138428 30.49879837036133 Z M 10.38329696655273 34.62767028808594 L 9.330026626586914 31.82686996459961 C 8.625936508178711 31.7147102355957 6.695356369018555 31.41707992553711 5.984936237335205 31.41707992553711 C 5.273986339569092 31.41707992553711 3.343716621398926 31.7147102355957 2.639106750488281 31.82770919799805 L 1.583926200866699 34.62778091430664 C 1.584246635437012 34.62778091430664 4.376306533813477 34.17063903808594 5.984296321868896 34.17053985595703 C 7.59187650680542 34.17053985595703 10.38298606872559 34.62767028808594 10.38329696655273 34.62767028808594 Z M 1.76339054107666 36.91398620605469 C 1.812609672546387 36.91398620605469 1.862936019897461 36.909423828125 1.913906097412109 36.89989852905273 C 2.219396591186523 36.84278106689453 2.466096878051758 36.59764099121094 2.524356842041016 36.29336929321289 C 2.619124412536621 35.79920959472656 2.241534233093262 35.36750793457031 1.763327598571777 35.36750793457031 C 1.71311092376709 35.36750793457031 1.661689758300781 35.37228012084961 1.609686851501465 35.38224029541016 C 1.304726600646973 35.44063949584961 1.059186935424805 35.68619918823242 1.001766204833984 35.99045944213867 C 0.9086418151855469 36.48353576660156 1.28520393371582 36.91398620605469 1.76339054107666 36.91398620605469 Z M 10.20541858673096 36.91396331787109 C 10.25592041015625 36.91396331787109 10.3075590133667 36.90914154052734 10.35986614227295 36.89907073974609 C 10.66472625732422 36.84046173095703 10.90993690490723 36.59478759765625 10.9670467376709 36.29062652587891 C 11.05966281890869 35.79759979248047 10.68357467651367 35.36753463745117 10.20545387268066 35.36753463745117 C 10.15659618377686 35.36753463745117 10.10666370391846 35.37202453613281 10.05606651306152 35.38140106201172 C 9.750576019287109 35.43800735473633 9.503776550292969 35.68262100219727 9.444976806640625 35.98677825927734 C 9.349113464355469 36.48136138916016 9.726880073547363 36.91396331787109 10.20541858673096 36.91396331787109 Z" stroke="none" fill="#01ccd3"/>
    </g>
  </g>
</svg>
