<svg xmlns="http://www.w3.org/2000/svg" width="17.637" height="21.636" viewBox="0 0 17.637 21.636">
  <g id="Group_2055" data-name="Group 2055" transform="translate(0.506 0.511)">
    <g id="Group_1835" data-name="Group 1835">
      <path id="Path_119" data-name="Path 119" d="M14614.256,5259.433q0,3.062,0,6.125a1.341,1.341,0,0,1-1.084,1.375,1.86,1.86,0,0,1-.369.03c-2.629,0-5.258,0-7.887,0a1.429,1.429,0,0,1-1.439-1.056,1.938,1.938,0,0,1-.032-.336c0-4.105,0-8.211-.006-12.316a1.4,1.4,0,0,1,1.395-1.385c2.683.008,5.366,0,8.05,0a1.332,1.332,0,0,1,1.372,1.364c0,.813,0,1.627,0,2.44Zm-.543-.006v-6.109a.815.815,0,0,0-.9-.9c-2.624,0-5.248.008-7.872-.007a.881.881,0,0,0-.934.929c.011,4.047.006,8.093.006,12.139a.841.841,0,0,0,.942.949h7.823a.835.835,0,0,0,.934-.938Z" transform="translate(-14597.626 -5246.344)" fill="#005691" stroke="#01c8d0" stroke-width="1"/>
      <path id="Path_120" data-name="Path 120" d="M14593.426,5250.183h-.538a8.178,8.178,0,0,1,1.992-5.4,8.281,8.281,0,0,1,6.405-2.953v.541a7.847,7.847,0,0,0-7.859,7.814Z" transform="translate(-14592.888 -5241.827)" fill="#005691" stroke="#01c8d0" stroke-width="1"/>
    </g>
    <path id="Path_121" data-name="Path 121" d="M14603.267,5246.774v.509a5.16,5.16,0,0,0-3.638,1.5,5.1,5.1,0,0,0-1.52,3.621h-.514A5.585,5.585,0,0,1,14603.267,5246.774Z" transform="translate(-14594.999 -5244.047)" fill="#005691" stroke="#01c8d0" stroke-width="1"/>
    <path id="Path_122" data-name="Path 122" d="M14613.872,5268.591h-6.44v-8.067h6.44Zm-5.9-.546h5.366v-6.974h-5.366Z" transform="translate(-14599.419 -5250.224)" fill="#01ccd3"/>
    <path id="Path_123" data-name="Path 123" d="M14607.426,5255.936v-.519h6.447v.519Z" transform="translate(-14599.415 -5247.928)" fill="#01ccd3"/>
  </g>
</svg>
