<svg id="Component_12_4" data-name="Component 12 – 4" xmlns="http://www.w3.org/2000/svg" width="110" height="110" viewBox="0 0 110 110">
  <path id="Path_1212" data-name="Path 1212" d="M55,0c30.376,0,55,24.1,55,53.83v2.34C110,85.9,85.376,110,55,110S0,85.9,0,56.17V53.83C0,24.1,24.624,0,55,0Z" fill="rgba(1,192,200,0.88)"/>
  <g id="train" transform="translate(26 36)">
    <path id="Path_1213" data-name="Path 1213" d="M57.506,288H.975a.975.975,0,0,0,0,1.949H57.506a.975.975,0,0,0,0-1.949Zm0,0" transform="translate(0 -252.912)" fill="#fff"/>
    <path id="Path_1214" data-name="Path 1214" d="M13.645,31.189h1.949a3.9,3.9,0,0,0,7.8,0h9.747a3.9,3.9,0,0,0,7.8,0h1.949a3.9,3.9,0,1,0,7.8,0c0-.089-.019-.174-.024-.261,5-.926,7.822-4.365,7.822-9.767C58.481,9.889,43.45,0,26.316,0H.975A.975.975,0,0,0,0,.974v29.24a.975.975,0,0,0,.975.975H5.848a3.9,3.9,0,0,0,7.8,0Zm-3.9-16.57h-7.8V7.8h7.8Zm-7.8,1.949h7.8v8.772h-7.8ZM12.527,29.24H11.7V7.8h9.747V29.24ZM28.266,7.8A2.34,2.34,0,0,1,30.272,8.93l3.16,5.69H23.392V7.8ZM19.494,33.139a1.949,1.949,0,0,1-1.949-1.949h3.9A1.949,1.949,0,0,1,19.494,33.139Zm17.544,0a1.949,1.949,0,0,1-1.949-1.949h3.9A1.949,1.949,0,0,1,37.038,33.139Zm2.78-3.9H23.392V27.291H54.167a9.73,9.73,0,0,1-6.408,1.949Zm8.916,1.949a1.949,1.949,0,0,1-3.9,0h2.924c.332,0,.653-.016.975-.033ZM54.5,14.62H46.867a7.466,7.466,0,0,1-6.531-3.858L38.861,8.3a.444.444,0,0,1,.02-.414c.023-.04.06-.088.1-.088H47.36A22.76,22.76,0,0,1,54.5,14.62ZM26.316,1.949a41.109,41.109,0,0,1,17.527,3.9H38.987A2.064,2.064,0,0,0,37.2,6.9a2.388,2.388,0,0,0-.028,2.376l1.475,2.463a9.4,9.4,0,0,0,8.216,4.833h8.668a11.474,11.474,0,0,1,1,4.592,9.244,9.244,0,0,1-.877,4.2.867.867,0,0,0-.1-.02H23.392V16.569h11.7a.975.975,0,0,0,.852-1.448L31.975,7.982a4.282,4.282,0,0,0-3.71-2.134H1.949v-3.9ZM1.949,29.24V27.291h7.8V29.24Zm7.8,3.9A1.949,1.949,0,0,1,7.8,31.189h3.9A1.949,1.949,0,0,1,9.747,33.139Zm0,0" transform="translate(0 0.001)" fill="#fff"/>
  </g>
</svg>
