<svg id="Component_15_4" data-name="Component 15 – 4" xmlns="http://www.w3.org/2000/svg" width="110" height="110" viewBox="0 0 110 110">
  <path id="Path_1212" data-name="Path 1212" d="M55,0c30.376,0,55,24.1,55,53.83v2.34C110,85.9,85.376,110,55,110S0,85.9,0,56.17V53.83C0,24.1,24.624,0,55,0Z" transform="translate(0 0)" fill="#1fc7ce"/>
  <g id="Group_1848" data-name="Group 1848" transform="translate(26.758 29.074)">
    <g id="Path_1285" data-name="Path 1285" transform="translate(-11.199 -20.05)" fill="none">
      <path d="M58.387,45.533a9.985,9.985,0,0,0-3.006.454L52.15,37.671H53.2a2.495,2.495,0,0,0,0-4.99H45.237l-5.034-6.5a2.694,2.694,0,0,0-1.8-.983,2.424,2.424,0,0,0-1.878.68l-9.768,9.753a2.3,2.3,0,0,0-.676,2.041,2.561,2.561,0,0,0,1.2,1.814L30.811,41.6,27.43,46.743A11.174,11.174,0,0,0,11.2,56.8a11.117,11.117,0,0,0,11.12,11.34,11.241,11.241,0,0,0,11.2-10.66H36.9a2.581,2.581,0,0,0,1.8,1.361h.376a2.435,2.435,0,0,0,2.4-2.117l.3-1.89L51.925,43.114l1.428,3.629a11.174,11.174,0,1,0,5.034-1.21ZM37.5,50.221l-2.855-6.275,3.532,2.117Zm-5.41-6.653L36.9,54.152l-.15.983H33.366A11.593,11.593,0,0,0,29.158,47.8Zm-.9,11.643H24.349l3.607-5.443A9.055,9.055,0,0,1,31.187,55.21ZM22.32,65.87a9.072,9.072,0,0,1,0-18.145,9.438,9.438,0,0,1,3.832.832l-4.734,7.107a1.2,1.2,0,0,0-.075,1.134,1.082,1.082,0,0,0,.977.6h9.017A9.111,9.111,0,0,1,22.32,65.87ZM42.457,50.75l.827-5.595a2.448,2.448,0,0,0-1.2-2.495l-.3-.227H49.6ZM38.1,40.241,36,38.956l4.583-4.234,1.5,1.966a2.487,2.487,0,0,0,1.954.983H49.9l.977,2.57ZM58.387,65.87A9.071,9.071,0,0,1,49.37,56.8,9.234,9.234,0,0,1,54.1,48.784l3.231,8.392a1.064,1.064,0,0,0,1.052.68.56.56,0,0,0,.376-.076,1.06,1.06,0,0,0,.6-1.436l-3.231-8.392c.751-.076,1.5-.227,2.254-.227a9.072,9.072,0,0,1,0,18.145Z" stroke="none"/>
      <path d="M 38.18849182128906 25.18468475341797 C 37.57168197631836 25.18468475341797 36.92571258544922 25.46985626220703 36.52139282226563 25.87667083740234 L 26.75338363647461 35.62939453125 C 26.22741317749023 36.15861511230469 25.92686462402344 36.91464233398438 26.07714462280273 37.67066192626953 C 26.22742462158203 38.42668151855469 26.60311508178711 39.10711288452148 27.27935409545898 39.48512268066406 L 30.81086349487305 41.60199356079102 L 27.42963409423828 46.74296188354492 C 25.92686462402344 45.98694229125977 24.19867324829102 45.5333137512207 22.39534378051758 45.5333137512207 C 16.15885162353516 45.5333137512207 11.19972229003906 50.59868240356445 11.19972229003906 56.79807281494141 C 11.12457275390625 63.07308197021484 16.08372497558594 68.13843536376953 22.32021331787109 68.13843536376953 C 28.33129501342773 68.13843536376953 33.14015579223633 63.45109558105469 33.51585388183594 57.4785041809082 L 36.8970832824707 57.4785041809082 C 37.27277374267578 58.15891265869141 37.87388610839844 58.68813323974609 38.70040512084961 58.83935165405273 C 38.85068511962891 58.83935165405273 38.92582321166992 58.83935165405273 39.07609558105469 58.83935165405273 C 40.27832412719727 58.83935165405273 41.33025360107422 57.93211364746094 41.48053359985352 56.72248458862305 L 41.78109359741211 54.83242416381836 L 51.92478179931641 43.11404418945313 L 53.3524169921875 46.74296188354492 C 49.67063522338867 48.63301467895508 47.19106292724609 52.41313171386719 47.19106292724609 56.79807281494141 C 47.19105529785156 63.07308197021484 52.22533416748047 68.13843536376953 58.38669586181641 68.13843536376953 C 64.54803466796875 68.13843536376953 69.58232116699219 63.07308197021484 69.58232116699219 56.87368392944336 C 69.58232116699219 50.59868240356445 64.62317657470703 45.5333137512207 58.38669586181641 45.5333137512207 C 57.33475494384766 45.5333137512207 56.35795593261719 45.68453216552734 55.38114547729492 45.98693466186523 L 52.15019226074219 37.67066192626953 L 53.20213317871094 37.67066192626953 C 54.55463409423828 37.67066192626953 55.68170547485352 36.53662490844727 55.68170547485352 35.17577362060547 C 55.68170547485352 33.81493377685547 54.55463409423828 32.68090438842773 53.20213317871094 32.68090438842773 L 45.23745346069336 32.68090438842773 L 40.20317459106445 26.17908477783203 C 39.75234603881836 25.64987182617188 39.1512336730957 25.2718505859375 38.39985275268555 25.19626617431641 C 38.33010101318359 25.18846130371094 38.25943374633789 25.18468475341797 38.18849182128906 25.18468475341797 M 50.87283325195313 40.24114227294922 L 38.09930419921875 40.24114227294922 L 35.99542617797852 38.95590209960938 L 40.57886505126953 34.72215270996094 L 42.08164596557617 36.68782424926758 C 42.53246307373047 37.29264450073242 43.28385543823242 37.67066192626953 44.03523635864258 37.67066192626953 L 49.89604187011719 37.67066192626953 L 50.87283325195313 40.24114227294922 M 41.78109359741211 42.43361282348633 L 49.59549713134766 42.43361282348633 L 42.45733642578125 50.74987411499023 L 43.28385543823242 45.15531158447266 C 43.43413543701172 44.1724739074707 42.98329544067383 43.18963241577148 42.08164596557617 42.66042327880859 L 41.78109359741211 42.43361282348633 M 36.74680328369141 55.13482284545898 L 33.36557388305664 55.13482284545898 C 32.91474533081055 52.18633270263672 31.4119758605957 49.61585235595703 29.15781402587891 47.8013916015625 L 32.08822631835938 43.56765365600586 L 36.8970832824707 54.15199279785156 L 36.74680328369141 55.13482284545898 M 34.6429328918457 43.94566345214844 L 38.17443466186523 46.06253433227539 L 37.49819564819336 50.22067260742188 L 34.6429328918457 43.94566345214844 M 22.32021331787109 65.870361328125 C 17.36107635498047 65.870361328125 13.30359649658203 61.787841796875 13.30359649658203 56.79807281494141 C 13.30359649658203 51.80833435058594 17.36107635498047 47.72578430175781 22.32021331787109 47.72578430175781 C 23.67270278930664 47.72578430175781 24.95006561279297 48.02820205688477 26.15228271484375 48.55743408203125 L 21.41854476928711 55.66404342651367 C 21.19313430786133 55.96646499633789 21.19313430786133 56.42005157470703 21.34341430664063 56.79807281494141 C 21.56882476806641 57.17608261108398 21.869384765625 57.40289306640625 22.32021331787109 57.40289306640625 L 31.33683395385742 57.40289306640625 C 30.96113586425781 62.16585540771484 27.05393600463867 65.870361328125 22.32021331787109 65.870361328125 M 58.38669586181641 65.870361328125 C 53.42755508422852 65.870361328125 49.37007522583008 61.787841796875 49.37007522583008 56.79807281494141 C 49.37007522583008 53.32038497924805 51.32367706298828 50.37186431884766 54.10379409790039 48.78423309326172 L 57.33475494384766 57.17608261108398 C 57.48502349853516 57.62970352172852 57.93586730957031 57.85652160644531 58.38669586181641 57.85652160644531 C 58.53697204589844 57.85652160644531 58.6872444152832 57.85652160644531 58.76238250732422 57.78091430664063 C 59.36349487304688 57.55409240722656 59.58890533447266 56.94929504394531 59.36349487304688 56.34446334838867 L 56.13253402709961 47.95259475708008 C 56.88392639160156 47.87699508666992 57.63530731201172 47.72578430175781 58.38669586181641 47.72578430175781 C 63.3458137512207 47.72578430175781 67.40331268310547 51.80833435058594 67.40331268310547 56.79807281494141 C 67.40331268310547 61.787841796875 63.3458137512207 65.870361328125 58.38669586181641 65.870361328125 M 31.18656539916992 55.21043395996094 L 24.34895324707031 55.21043395996094 L 27.95560455322266 49.76706314086914 C 29.6086540222168 51.12790298461914 30.81086349487305 53.01795196533203 31.18656539916992 55.21043395996094 M 38.18849563598633 23.18468475341797 C 38.32977676391602 23.18468475341797 38.47142028808594 23.19228363037109 38.60971832275391 23.20729064941406 C 39.82068634033203 23.33163452148438 40.89803314208984 23.91062927246094 41.72563552856445 24.88211059570313 L 41.75593566894531 24.91769409179688 L 41.78455352783203 24.95464324951172 L 46.21832656860352 30.68090438842773 L 53.20213317871094 30.68090438842773 C 54.39280700683594 30.68090438842773 55.51701354980469 31.15226364135742 56.3676643371582 32.00816345214844 C 57.21503448486328 32.86077499389648 57.68170547485352 33.98571395874023 57.68170547485352 35.17577362060547 C 57.68170547485352 36.3658332824707 57.21503448486328 37.49078369140625 56.36767578125 38.3433837890625 C 55.94857788085938 38.76506805419922 55.4630012512207 39.09345245361328 54.93586730957031 39.31807708740234 L 56.62251281738281 43.65939712524414 C 57.20081329345703 43.57495498657227 57.78630065917969 43.5333137512207 58.38669586181641 43.5333137512207 C 61.9383544921875 43.5333137512207 65.26302337646484 44.92325210571289 67.74826049804688 47.44710159301758 C 70.22069549560547 49.95794296264648 71.58232116699219 53.30570220947266 71.58232116699219 56.87368392944336 C 71.58232116699219 60.40388488769531 70.2083740234375 63.73048400878906 67.71357727050781 66.24069213867188 C 65.21549224853516 68.75418090820313 61.90314483642578 70.13843536376953 58.38669586181641 70.13843536376953 C 54.86474609375 70.13843536376953 51.55124664306641 68.74966430664063 49.05655670166016 66.22795104980469 C 46.5638542175293 63.708251953125 45.19105529785156 60.35932159423828 45.19106292724609 56.79807281494141 C 45.19106292724609 55.65412902832031 45.33617401123047 54.53471755981445 45.61343765258789 53.46101760864258 L 43.66666793823242 55.70999908447266 L 43.46027374267578 57.00790786743164 C 43.16901397705078 59.19504928588867 41.29116821289063 60.83935165405273 39.07609558105469 60.83935165405273 L 38.70040512084961 60.83935165405273 L 38.51895523071289 60.83935165405273 L 38.3404655456543 60.80669403076172 C 37.39490509033203 60.63369369506836 36.55702209472656 60.17345428466797 35.8978157043457 59.4785041809082 L 35.26445007324219 59.4785041809082 C 34.72145080566406 62.15596008300781 33.39040374755859 64.59799194335938 31.41556549072266 66.49172973632813 C 28.9632453918457 68.84334564208984 25.73312377929688 70.13843536376953 22.32021331787109 70.13843536376953 C 18.78307342529297 70.13843536376953 15.47381591796875 68.76075744628906 13.00202178955078 66.25918579101563 C 10.50989532470703 63.73703765869141 9.159828186035156 60.37290954589844 9.199729919433594 56.78573608398438 C 9.202888488769531 53.2534294128418 10.56537628173828 49.93284225463867 13.03702545166016 47.43436431884766 C 15.525634765625 44.91873168945313 18.84915542602539 43.5333137512207 22.39534378051758 43.5333137512207 C 23.83642196655273 43.5333137512207 25.28791427612305 43.78105163574219 26.67052841186523 44.25750350952148 L 27.99398040771484 42.24526977539063 L 26.27281188964844 41.21356201171875 C 25.15933609008789 40.57869720458984 24.39377975463867 39.46041488647461 24.11552429199219 38.06059265136719 C 23.84436416625977 36.69648361206055 24.30018615722656 35.26057434082031 25.33482360839844 34.21954345703125 L 25.33754348754883 34.21680450439453 L 25.34027481079102 34.21407318115234 L 35.10563278198242 24.46399688720703 C 35.9034423828125 23.66284942626953 37.05556869506836 23.18468475341797 38.18849563598633 23.18468475341797 Z M 40.48654937744141 37.89437866210938 L 40.32332229614258 37.68087387084961 L 39.71677780151367 38.24114227294922 L 40.77577590942383 38.24114227294922 C 40.67391967773438 38.13103103637695 40.57735061645508 38.01538467407227 40.48654937744141 37.89437866210938 Z M 22.95235061645508 49.75373458862305 C 22.74280548095703 49.73506927490234 22.53219985961914 49.72578430175781 22.32021331787109 49.72578430175781 C 18.45123291015625 49.72578430175781 15.30359649658203 52.89840316772461 15.30359649658203 56.79807281494141 C 15.30359649658203 60.6977424621582 18.45123291015625 63.870361328125 22.32021331787109 63.870361328125 C 25.22081756591797 63.870361328125 27.76668548583984 62.02757263183594 28.83321380615234 59.40289306640625 L 22.32021331787109 59.40289306640625 C 21.19034576416016 59.40289306640625 20.23339462280273 58.84159469604492 19.62563323974609 57.82239151000977 L 19.54387283325195 57.68527221679688 L 19.48489379882813 57.53692245483398 C 19.07441711425781 56.50439071655273 19.18619155883789 55.35755157470703 19.7740592956543 54.52519989013672 L 22.95235061645508 49.75373458862305 Z M 58.38669586181641 63.870361328125 C 62.25567626953125 63.870361328125 65.40331268310547 60.6977424621582 65.40331268310547 56.79807281494141 C 65.40331268310547 53.09548187255859 62.56592559814453 50.04832458496094 58.96758270263672 49.74979019165039 L 61.22993469238281 55.62586212158203 L 61.23381423950195 55.63592147827148 L 61.23757553100586 55.64602279663086 C 61.52317428588867 56.4123420715332 61.51930236816406 57.23238372802734 61.2266845703125 57.95506286621094 C 60.94197463989258 58.65821075439453 60.41296768188477 59.21434020996094 59.72176361083984 59.54419708251953 C 59.17784881591797 59.85650253295898 58.62738037109375 59.85652160644531 58.38669586181641 59.85652160644531 C 57.0498046875 59.85652160644531 55.8801155090332 59.05791473388672 55.45602035522461 57.86275100708008 L 53.2103271484375 52.02995300292969 C 52.03306198120117 53.33249664306641 51.37007522583008 55.00537872314453 51.37007522583008 56.79807281494141 C 51.37007522583008 60.6977424621582 54.51771545410156 63.870361328125 58.38669586181641 63.870361328125 Z" stroke="none" fill="#dcffff"/>
    </g>
    <g id="Ellipse_311" data-name="Ellipse 311" transform="translate(30.525 0)" fill="none" stroke="#edffff" stroke-width="2">
      <circle cx="3.931" cy="3.931" r="3.931" stroke="none"/>
      <circle cx="3.931" cy="3.931" r="4.931" fill="none"/>
    </g>
  </g>
</svg>
