<svg id="Component_14_4" data-name="Component 14 – 4" xmlns="http://www.w3.org/2000/svg" width="110" height="110" viewBox="0 0 110 110">
  <path id="Path_1212" data-name="Path 1212" d="M55,0c30.376,0,55,24.1,55,53.83v2.34C110,85.9,85.376,110,55,110S0,85.9,0,56.17V53.83C0,24.1,24.624,0,55,0Z" fill="#1fc7ce"/>
  <path id="Path_1284" data-name="Path 1284" d="M50.4,20.008H45.456l-1.1-5.047a8.59,8.59,0,0,0-8.307-6.73h-.421l-.683-4.048a2.034,2.034,0,0,0-2-1.682H22.953a1.986,1.986,0,0,0-2,1.682l-.683,4.048h-.421a8.545,8.545,0,0,0-8.307,6.73l-1.1,5.047H5.5a2,2,0,0,0-2,2v2.576a2,2,0,0,0,2,2H7.759L6.444,28a5.294,5.294,0,0,0-1.42,3.1l-.894,8.149a5.205,5.205,0,0,0,1.1,3.838v7.256A2.165,2.165,0,0,0,7.391,52.5h5.152A2.132,2.132,0,0,0,14.7,50.344v-5.1H41.25v5.1A2.165,2.165,0,0,0,43.405,52.5h5.152a2.132,2.132,0,0,0,2.156-2.156V43.036a5.372,5.372,0,0,0,1.1-3.838l-.894-8.149a5.294,5.294,0,0,0-1.42-3.1l-1.314-1.42h2.261a2,2,0,0,0,2-2V21.953A2.034,2.034,0,0,0,50.4,20.008Zm-34.543-4.1a4.1,4.1,0,0,1,4-3.207H36.045a4.155,4.155,0,0,1,4,3.207l1.577,7.361H14.278ZM14.7,37.2a3.523,3.523,0,1,1,3.523-3.523A3.523,3.523,0,0,1,14.7,37.2ZM32.68,40.513H23.216a1,1,0,0,1,0-2H32.68a1,1,0,1,1,0,2Zm0-4.522H23.216a1,1,0,0,1-1-1,1.034,1.034,0,0,1,1-1H32.68a1,1,0,1,1,0,2ZM41.2,37.2a3.523,3.523,0,1,1,3.523-3.523A3.523,3.523,0,0,1,41.2,37.2Z" transform="translate(27 28)" fill="none" stroke="#edffff" stroke-width="2"/>
</svg>
