<svg id="Checkbox_-_smaller_size" data-name="Checkbox - smaller size" xmlns="http://www.w3.org/2000/svg" width="14" height="14" viewBox="0 0 14 14">
  <g id="Group_1987" data-name="Group 1987">
    <g id="Rectangle_1673" data-name="Rectangle 1673" fill="#fff" stroke="#102e35" stroke-width="0.5">
      <rect width="14" height="14" stroke="none"/>
      <rect x="0.25" y="0.25" width="13.5" height="13.5" fill="none"/>
    </g>
  </g>
  <path id="Path_1163" data-name="Path 1163" d="M-88.032,31.287l-5.652,6.087a.869.869,0,0,1-.662.375l-.054,0a.87.87,0,0,1-.65-.292l-2.609-3.043a.869.869,0,0,1,.072-1.227.869.869,0,0,1,1.227.072l1.959,2.384,4.935-5.342a.87.87,0,0,1,1.209-.224A.869.869,0,0,1-88.032,31.287Z" transform="translate(99.878 -26.926)" fill="#21034f"/>
</svg>
