<svg xmlns="http://www.w3.org/2000/svg" width="10.333" height="10.333" viewBox="0 0 10.333 10.333">
  <g id="close_button" data-name="close button" transform="translate(0 0)">
    <path id="Path_1272" data-name="Path 1272" d="M8.724,18.595a.737.737,0,0,0,1.042,0l0,0,3.889-3.889,3.9,3.9a.74.74,0,0,0,1.046-1.046h0l-3.9-3.9,3.9-3.9A.74.74,0,0,0,17.564,8.71l-3.9,3.9-3.9-3.889A.74.74,0,0,0,8.71,9.77l3.9,3.889-3.889,3.9A.735.735,0,0,0,8.724,18.595Z" transform="translate(-8.493 -8.493)" fill="#989fa1"/>
  </g>
</svg>
