<svg id="Component_7_6" data-name="Component 7 – 6" xmlns="http://www.w3.org/2000/svg" width="34.653" height="28" viewBox="0 0 34.653 28">
  <path id="Path_272" data-name="Path 272" d="M37.009,18.379A24.62,24.62,0,0,0,19.888,11.6,24.75,24.75,0,0,0,2.767,18.379a.631.631,0,0,0,0,.906l1.971,1.958a.6.6,0,0,0,.876,0,20.94,20.94,0,0,1,28.548,0,.631.631,0,0,0,.876,0l1.971-1.958A.578.578,0,0,0,37.009,18.379Z" transform="translate(-2.575 -11.6)" fill="#3d9839"/>
  <path id="Path_273" data-name="Path 273" d="M28.877,31.5a17.583,17.583,0,0,0-12.009,4.713.63.63,0,0,0,0,.906l2.014,1.958a.6.6,0,0,0,.879,0,13.6,13.6,0,0,1,9.153-3.516,13.422,13.422,0,0,1,9.153,3.516.673.673,0,0,0,.879,0l1.977-1.958a.63.63,0,0,0,0-.906A17.639,17.639,0,0,0,28.877,31.5Z" transform="translate(-11.564 -24.216)" fill="#3d9839"/>
  <path id="Path_274" data-name="Path 274" d="M37.624,51.4a10.215,10.215,0,0,0-6.815,2.574.646.646,0,0,0-.036.943l1.958,1.958a.614.614,0,0,0,.834.036,6.381,6.381,0,0,1,8.011,0,.614.614,0,0,0,.834-.036l1.958-1.958a.648.648,0,0,0-.036-.943A9.743,9.743,0,0,0,37.624,51.4Z" transform="translate(-20.312 -36.845)" fill="#3d9839"/>
  <path id="Path_275" data-name="Path 275" d="M44.581,71.3a3.081,3.081,0,1,0,3.081,3.081A3.079,3.079,0,0,0,44.581,71.3Z" transform="translate(-27.268 -49.462)" fill="#3d9839"/>
</svg>
