<svg id="Component_94_7" data-name="Component 94 – 7" xmlns="http://www.w3.org/2000/svg" width="18.862" height="18.868" viewBox="0 0 18.862 18.868">
  <path id="Path_305" data-name="Path 305" d="M19.607,18.746a1.622,1.622,0,0,1-1.6,1.624H5.231a1.622,1.622,0,0,1-1.6-1.624V5.967A1.576,1.576,0,0,1,5.231,4.4h7.454V3.332H5.231A2.643,2.643,0,0,0,2.569,5.968V18.746a2.687,2.687,0,0,0,2.662,2.688H18.009a2.688,2.688,0,0,0,2.662-2.688V11.318H19.606v7.428Z" transform="translate(-2.569 -2.566)" fill="#8481ad"/>
  <path id="Path_306" data-name="Path 306" d="M20.807,3.17a2.18,2.18,0,0,0-3.012,0l-7.143,7.143a.532.532,0,0,0-.14.247L9.76,13.571a.533.533,0,0,0,.516.662.518.518,0,0,0,.129-.016l3.012-.753a.527.527,0,0,0,.247-.14l7.143-7.143a2.128,2.128,0,0,0,0-3.011Zm-7.791,9.3-2.008.5.5-2.008,5.909-5.909,1.506,1.506Zm7.038-7.039-.376.376L18.172,4.3l.376-.376a1.091,1.091,0,0,1,1.506,0,1.065,1.065,0,0,1,0,1.506Z" transform="translate(-2.569 -2.566)" fill="#8481ad"/>
</svg>
