<svg xmlns="http://www.w3.org/2000/svg" width="19" height="19" viewBox="0 0 19 19">
  <g id="Component_95_7" data-name="Component 95 – 7" transform="translate(0)">
    <path id="Path_308" data-name="Path 308" d="M90.308,2H72.574a.633.633,0,0,0,0,1.267h1.9V17.2a1.9,1.9,0,0,0,1.9,1.9H86.508a1.9,1.9,0,0,0,1.9-1.9V3.267h1.9a.633.633,0,0,0,0-1.267ZM87.141,17.2a.634.634,0,0,1-.633.633H76.374a.634.634,0,0,1-.633-.633V3.267h11.4Z" transform="translate(-71.941 -0.1)" fill="#8481ad"/>
    <path id="Path_309" data-name="Path 309" d="M81.574.267h6.333a.634.634,0,0,0,.633-.633A.634.634,0,0,0,87.908-1H81.574a.634.634,0,0,0-.633.633A.634.634,0,0,0,81.574.267Z" transform="translate(-75.241 1)" fill="#8481ad"/>
    <path id="Path_310" data-name="Path 310" d="M82.574,17.5a.634.634,0,0,0,.633-.633V8.633a.633.633,0,1,0-1.267,0v8.233A.634.634,0,0,0,82.574,17.5Z" transform="translate(-75.608 -2.3)" fill="#8481ad"/>
    <path id="Path_311" data-name="Path 311" d="M89.574,17.5a.634.634,0,0,0,.633-.633V8.633a.633.633,0,0,0-1.267,0v8.233A.634.634,0,0,0,89.574,17.5Z" transform="translate(-78.174 -2.3)" fill="#8481ad"/>
  </g>
</svg>
