<svg xmlns="http://www.w3.org/2000/svg" width="22.593" height="24.5" viewBox="0 0 22.593 24.5">
  <g id="filter_icon" data-name="filter icon" transform="translate(0.271 0.25)">
    <path id="Path_1135" data-name="Path 1135" d="M20.629,21.172a1.021,1.021,0,0,1,.215.645v9.4a1.27,1.27,0,0,0,.768,1.137l6.146,2.551a1.233,1.233,0,0,0,.461.092,1.106,1.106,0,0,0,.676-.215,1.227,1.227,0,0,0,.553-1.014V21.848a1.159,1.159,0,0,1,.215-.645l6.177-7.744A1.513,1.513,0,0,0,34.641,11H15.65a1.573,1.573,0,0,0-1.383.86,1.512,1.512,0,0,0,.184,1.6Zm-5.255-8.789a.271.271,0,0,1,.277-.154H34.641a.385.385,0,0,1,.277.154.288.288,0,0,1-.031.307l-6.177,7.744a2.32,2.32,0,0,0-.492,1.414V33.771L22.073,31.22V21.848a2.32,2.32,0,0,0-.492-1.414L15.4,12.69A.288.288,0,0,1,15.374,12.383Z" transform="translate(-14.12 -11)" fill="#8481ad" stroke="#8481ad" stroke-width="0.5"/>
  </g>
</svg>
