<svg xmlns="http://www.w3.org/2000/svg" width="15.395" height="16.889" viewBox="0 0 15.395 16.889">
  <g id="Group_2053" data-name="Group 2053" transform="translate(0.5 0.5)">
    <g id="Group_158" data-name="Group 158" transform="translate(0 5.799)">
      <path id="Path_124" data-name="Path 124" d="M14913.895,5262.85a5.351,5.351,0,0,1-2.535-10.062.222.222,0,1,1,.211.39,4.908,4.908,0,1,0,7.15,5.217.222.222,0,0,1,.436.081A5.347,5.347,0,0,1,14913.895,5262.85Z" transform="translate(-14908.545 -5252.76)" fill="#01c8d0" stroke="#01c8d0" stroke-width="1"/>
    </g>
    <g id="Group_159" data-name="Group 159" transform="translate(3.342 2.143)">
      <path id="Path_125" data-name="Path 125" d="M14918.254,5253.167a.221.221,0,0,1-.2-.119l-3.424-6.6a.222.222,0,0,1,.395-.2l3.424,6.6a.222.222,0,0,1-.2.324Z" transform="translate(-14914.607 -5246.126)" fill="#01c8d0" stroke="#01c8d0" stroke-width="1"/>
    </g>
    <g id="Group_160" data-name="Group 160" transform="translate(6.764 8.741)">
      <path id="Path_126" data-name="Path 126" d="M14926.334,5258.543h-5.291a.222.222,0,1,1,0-.443h5.291a.222.222,0,0,1,0,.443Z" transform="translate(-14920.82 -5258.1)" fill="#01c8d0" stroke="#01c8d0" stroke-width="1"/>
    </g>
    <g id="Group_161" data-name="Group 161" transform="translate(12.055 8.741)">
      <path id="Path_127" data-name="Path 127" d="M14932.512,5262.611a.226.226,0,0,1-.2-.129l-1.867-4.067a.222.222,0,0,1,.4-.185l1.867,4.067a.222.222,0,0,1-.109.294A.231.231,0,0,1,14932.512,5262.611Z" transform="translate(-14930.421 -5258.1)" fill="#01c8d0" stroke="#01c8d0" stroke-width="1"/>
    </g>
    <g id="Group_162" data-name="Group 162" transform="translate(4.675 4.714)">
      <path id="Path_128" data-name="Path 128" d="M14923.137,5251.341h0l-5.886-.106a.222.222,0,1,1,.008-.444l5.886.106a.222.222,0,0,1,0,.444Z" transform="translate(-14917.028 -5250.791)" fill="#01c8d0" stroke="#01c8d0" stroke-width="1"/>
    </g>
    <g id="Group_163" data-name="Group 163" transform="translate(1.82)">
      <circle id="Ellipse_15" data-name="Ellipse 15" cx="1.727" cy="1.727" r="1.727" fill="#01c8d0" stroke="#01c8d0" stroke-width="1"/>
    </g>
  </g>
</svg>
