<svg xmlns="http://www.w3.org/2000/svg" width="20.077" height="15.028" viewBox="0 0 20.077 15.028">
  <g id="Group_2056" data-name="Group 2056" transform="translate(0.25 0.295)">
    <path id="Path_118" data-name="Path 118" d="M14436.238,5260.687v-6.055a2.658,2.658,0,0,1,1.779.32,1.7,1.7,0,0,1,.713,1.552h3.217c.406,0,.549-.107.645-.486q.451-1.8.9-3.6c.021-.074.029-.15.047-.245l-6.33-1.376,1.135-4.555,17.273,3.739c-.395.491-.771.961-1.15,1.429-.49.606-.98,1.214-1.479,1.817-.207.251-.422.5-.65.731a.333.333,0,0,1-.258.061c-1.4-.3-2.8-.6-4.207-.907l-1.873-.4c-.252,1.015-.5,2-.748,2.991-.053.209-.105.418-.16.627a1.13,1.13,0,0,0,.027.795,1.52,1.52,0,0,1-.6,1.865,1.875,1.875,0,0,1-2.1-.006.824.824,0,0,0-.424-.133c-.99-.012-1.982-.007-2.975-.006-.092,0-.18.008-.27.012C14438.7,5260.392,14437.535,5260.868,14436.238,5260.687Zm1.58-10.251c.115.029.193.051.271.067,1.934.417,3.867.83,5.8,1.251,2.65.578,5.3,1.163,7.949,1.734a.433.433,0,0,0,.346-.117c.529-.607,1.043-1.227,1.557-1.847.332-.4.652-.81,1.006-1.248l-16.023-3.469Zm-1.088,9.777a1.189,1.189,0,0,0,1.459-1.039c.049-.793.016-1.59.016-2.385a5.046,5.046,0,0,0-.023-.75,1.184,1.184,0,0,0-1.451-.893Zm7.838-3.841.936-3.77-1.459-.312-.937,3.767A2.006,2.006,0,0,1,14444.568,5256.372Zm-1.076.133a1.188,1.188,0,0,0-1.256,1.154,1.2,1.2,0,0,0,1.244,1.173,1.241,1.241,0,0,0,1.26-1.176A1.227,1.227,0,0,0,14443.492,5256.505Zm-4.746,1.857h3.125a1.792,1.792,0,0,1-.008-1.374h-3.117Z" transform="translate(-14436.238 -5246.242)" fill="#01c4cc" stroke="#01c4cc" stroke-width="0.5"/>
  </g>
</svg>
