<svg id="Group_1834" data-name="Group 1834" xmlns="http://www.w3.org/2000/svg" width="16.382" height="18" viewBox="0 0 16.382 18">
  <path id="Path_1265" data-name="Path 1265" d="M25.579,5.5a.3.3,0,0,0-.3.3v7.685H22.206V12.9H22.8a.3.3,0,0,0,.3-.3V10.668a1.789,1.789,0,0,0-.491-1.231.826.826,0,0,0-.186-1.63h-.818l-.223-.954a1.339,1.339,0,0,0-1.241-.985H15.29a1.288,1.288,0,0,0-1.209.992l-.19.947h-.733a.826.826,0,0,0-.186,1.63,1.79,1.79,0,0,0-.491,1.231v1.926a.3.3,0,0,0,.3.3h.594v.591H10.107V5.8a.3.3,0,0,0-.607,0V23.2a.3.3,0,1,0,.607,0V14.1H25.275v9.1a.3.3,0,1,0,.607,0V5.8A.3.3,0,0,0,25.579,5.5ZM21.758,8.413h.668a.22.22,0,0,1,0,.44h-.574l-.094-.4ZM14.676,6.978a.682.682,0,0,1,.615-.5h4.854a.741.741,0,0,1,.65.516l.439,1.88H14.3ZM12.938,8.633a.223.223,0,0,1,.22-.22h.612l-.088.44h-.524A.223.223,0,0,1,12.938,8.633Zm7.167,4.856H15.48V12.9h4.625v.591Zm-6.12,0V12.9h.888v.591Zm6.727,0V12.9H21.6v.591Z" transform="translate(-9.5 -5.5)" fill="#01ccd3"/>
  <path id="Path_1266" data-name="Path 1266" d="M34.827,55.56a.816.816,0,0,0-.857-.765h-.849l-.231-.883A1.367,1.367,0,0,0,31.6,53H26.569a1.308,1.308,0,0,0-1.254.918l-.2.877h-.76a.816.816,0,0,0-.857.765.79.79,0,0,0,.665.744,1.567,1.567,0,0,0-.51,1.14v1.783a.3.3,0,0,0,.315.281h.616v.828a.3.3,0,0,0,.315.281h1.55a.3.3,0,0,0,.315-.281v-.828h4.8v.828a.3.3,0,0,0,.315.281h1.55a.3.3,0,0,0,.315-.281v-.828h.616a.3.3,0,0,0,.315-.281V57.444a1.567,1.567,0,0,0-.51-1.14A.79.79,0,0,0,34.827,55.56Zm-8.9-1.532a.693.693,0,0,1,.637-.466H31.6a.757.757,0,0,1,.674.478l.455,1.74H25.539Zm-1.8,1.532a.22.22,0,0,1,.228-.2h.635l-.091.407h-.543A.22.22,0,0,1,24.129,55.56Zm2.006,4.5h-.921v-.547h.921Zm6.977,0h-.921v-.547h.921Zm.93-1.109H24.284v-1.5a1.176,1.176,0,0,1,1.236-1.1h7.287a1.176,1.176,0,0,1,1.236,1.1Zm-.073-3.183h-.6l-.1-.374v-.033h.693a.2.2,0,1,1,0,.407Z" transform="translate(-20.879 -42.77)" fill="#01ccd3"/>
  <path id="Path_1267" data-name="Path 1267" d="M29.648,72.935a.973.973,0,1,0,.972.973A.974.974,0,0,0,29.648,72.935Zm0,1.384a.411.411,0,1,1,.411-.411A.412.412,0,0,1,29.648,74.319Z" transform="translate(-24.674 -58.973)" fill="#01ccd3"/>
  <path id="Path_1268" data-name="Path 1268" d="M62.909,72.935a.973.973,0,1,0,.973.973A.974.974,0,0,0,62.909,72.935Zm0,1.384a.411.411,0,1,1,.411-.411A.411.411,0,0,1,62.909,74.319Z" transform="translate(-51.215 -58.973)" fill="#01ccd3"/>
  <path id="Path_1269" data-name="Path 1269" d="M62.909,72.935a.973.973,0,1,0,.973.973A.974.974,0,0,0,62.909,72.935Zm0,1.384a.411.411,0,1,1,.411-.411A.411.411,0,0,1,62.909,74.319Z" transform="translate(-51.215 -67.973)" fill="#fff"/>
  <path id="Path_1270" data-name="Path 1270" d="M62.909,72.935a.973.973,0,1,0,.973.973A.974.974,0,0,0,62.909,72.935Zm0,1.384a.411.411,0,1,1,.411-.411A.411.411,0,0,1,62.909,74.319Z" transform="translate(-57.936 -67.973)" fill="#fff"/>
</svg>
