<svg id="Group_2057" data-name="Group 2057" xmlns="http://www.w3.org/2000/svg" width="110" height="110" viewBox="0 0 110 110">
  <path id="Path_1294" data-name="Path 1294" d="M55,0c30.376,0,55,24.1,55,53.83v2.34C110,85.9,85.376,110,55,110S0,85.9,0,56.17V53.83C0,24.1,24.624,0,55,0Z" fill="rgba(1,192,200,0.88)"/>
  <g id="bus" transform="translate(25 29)">
    <path id="Path_1208" data-name="Path 1208" d="M57.238,9.862h-1.09a3.1,3.1,0,0,0-3.175-2.953H50.334v-3.9A3.1,3.1,0,0,0,47.157,0H11.874A3.1,3.1,0,0,0,8.7,3.008v3.9H6.059A3.1,3.1,0,0,0,2.883,9.862H1.793A1.749,1.749,0,0,0,0,11.56v8.746A1.749,1.749,0,0,0,1.793,22H5.7a1.749,1.749,0,0,0,1.793-1.7V11.56A1.749,1.749,0,0,0,5.7,9.862H4.618A1.411,1.411,0,0,1,6.059,8.55H8.7V38.986a.868.868,0,0,0,1.733,0V32.221a3.3,3.3,0,0,0,1.444.33H47.157a3.3,3.3,0,0,0,1.444-.33V45.466a1.409,1.409,0,0,1-1.444,1.367H11.874a1.409,1.409,0,0,1-1.444-1.367V42.778a.868.868,0,0,0-1.733,0v2.688a3.1,3.1,0,0,0,3.177,3.008h.9v1.907a2.367,2.367,0,0,0,2.426,2.3H19.1a2.367,2.367,0,0,0,2.426-2.3V48.474H37.509v1.907a2.367,2.367,0,0,0,2.426,2.3H43.83a2.367,2.367,0,0,0,2.426-2.3V48.474h.9a3.1,3.1,0,0,0,3.177-3.008V8.55h2.639a1.412,1.412,0,0,1,1.441,1.313H53.328a1.75,1.75,0,0,0-1.793,1.7v8.746A1.75,1.75,0,0,0,53.328,22h3.91a1.749,1.749,0,0,0,1.793-1.7V11.56a1.749,1.749,0,0,0-1.793-1.7ZM5.7,11.5a.058.058,0,0,1,.06.057v8.746a.059.059,0,0,1-.06.057H1.793a.059.059,0,0,1-.06-.057V11.56a.059.059,0,0,1,.06-.057ZM19.789,50.381a.677.677,0,0,1-.693.656H15.2a.676.676,0,0,1-.693-.656V48.474h5.281v1.907Zm24.733,0a.676.676,0,0,1-.693.656H39.935a.677.677,0,0,1-.693-.656V48.474h5.281ZM48.6,9.8H13.612a.822.822,0,1,0,0,1.641H48.6V26.98H42.878a.822.822,0,1,0,0,1.641H48.6v.922a1.409,1.409,0,0,1-1.444,1.367H11.874a1.409,1.409,0,0,1-1.444-1.367v-.922h28.4a.822.822,0,1,0,0-1.641H30.313l8.174-6.47a.79.79,0,0,0,.109-1.154.9.9,0,0,0-1.218-.1L27.616,26.98H23.9l8.174-6.47a.789.789,0,0,0,.109-1.153.9.9,0,0,0-1.218-.1L21.2,26.981H10.43V7.173H48.6Zm0-4.266H10.43V3.008a1.409,1.409,0,0,1,1.444-1.367H47.157A1.409,1.409,0,0,1,48.6,3.008Zm8.7,14.774a.059.059,0,0,1-.06.057h-3.91a.059.059,0,0,1-.06-.057V11.56a.059.059,0,0,1,.06-.057h3.91a.059.059,0,0,1,.06.057Zm0,0" transform="translate(0 0)" fill="#fff"/>
    <path id="Path_1209" data-name="Path 1209" d="M118.686,329.117a1.409,1.409,0,0,0,1.444-1.368v-1.313a3.325,3.325,0,0,0-3.408-3.227h-5.314a1.409,1.409,0,0,0-1.444,1.367v1.313a3.325,3.325,0,0,0,3.408,3.227Zm-6.989-3.227v-1.039h5.025a1.634,1.634,0,0,1,1.675,1.586v1.039h-5.025a1.635,1.635,0,0,1-1.675-1.586Zm0,0" transform="translate(-97.286 -287.925)" fill="#fff"/>
    <path id="Path_1210" data-name="Path 1210" d="M320.622,329.117a3.325,3.325,0,0,0,3.408-3.227v-1.313a1.409,1.409,0,0,0-1.444-1.367h-5.314a3.325,3.325,0,0,0-3.408,3.227v1.313a1.409,1.409,0,0,0,1.444,1.368Zm-5.025-2.68a1.634,1.634,0,0,1,1.675-1.586H322.3v1.039a1.634,1.634,0,0,1-1.675,1.586H315.6Zm0,0" transform="translate(-277.677 -287.925)" fill="#fff"/>
    <path id="Path_1211" data-name="Path 1211" d="M221.962,382.919a1.083,1.083,0,0,0,1.11-1.051V379.7a1.083,1.083,0,0,0-1.11-1.051h-7.649a1.082,1.082,0,0,0-1.11,1.051v2.164a1.083,1.083,0,0,0,1.11,1.051Zm-7.026-2.625h6.4v.985h-6.4Zm0,0" transform="translate(-188.622 -337.314)" fill="#fff"/>
  </g>
</svg>
