<svg id="info" xmlns="http://www.w3.org/2000/svg" width="24" height="24" viewBox="0 0 24 24">
  <path id="Path_1158" data-name="Path 1158" d="M11.967,0A12,12,0,1,1,0,11.967,12.033,12.033,0,0,1,11.967,0Zm.52,4.618a1.957,1.957,0,0,1,1.951,1.951A2,2,0,0,1,12.488,8.52a1.951,1.951,0,1,1,0-3.9Zm2.8,13.138C14.7,19.9,8.976,20.1,9.366,17.171c.26-1.951.65-3.837.976-5.724.2-1.236-.585-.846-1.3-1.106-.455-.2-.455-.78.13-.911a28.415,28.415,0,0,1,4.1-.065.736.736,0,0,1,.78.715,6.408,6.408,0,0,1-.13,1.106c-.325,1.821-.78,3.772-1.041,5.593,0,.39.065,1.106.65,1.041a2.827,2.827,0,0,0,1.3-.455C15.089,17.236,15.35,17.431,15.285,17.756Z" fill="#102e35" fill-rule="evenodd" opacity="0.58"/>
</svg>
