<svg id="live_and_open_status" data-name="live and open status" xmlns="http://www.w3.org/2000/svg" width="18.995" height="18.995" viewBox="0 0 18.995 18.995">
  <g id="Path_1117" data-name="Path 1117" fill="#67b561">
    <path d="M 9.497665405273438 18.69533538818359 C 4.426055431365967 18.69533538818359 0.2999953925609589 14.56927585601807 0.2999953925609589 9.497665405273438 C 0.2999953925609589 4.426055431365967 4.426055431365967 0.2999953925609589 9.497665405273438 0.2999953925609589 C 14.56927585601807 0.2999953925609589 18.69533538818359 4.426055431365967 18.69533538818359 9.497665405273438 C 18.69533538818359 12.71164512634277 17.01785469055176 15.61642551422119 14.09302520751953 17.46718597412109 C 12.8987455368042 18.2367057800293 11.18162536621094 18.69533538818359 9.497665405273438 18.69533538818359 Z" stroke="none"/>
    <path d="M 9.497665405273438 0.5999946594238281 C 4.591475486755371 0.5999946594238281 0.5999946594238281 4.591475486755371 0.5999946594238281 9.497665405273438 C 0.5999946594238281 14.4038553237915 4.591475486755371 18.39533615112305 9.497665405273438 18.39533615112305 C 11.12634563446045 18.39533615112305 12.78271484375 17.95458602905273 13.9326057434082 17.21367454528809 C 15.34480571746826 16.32007598876953 16.45238494873047 15.19323539733887 17.22455596923828 13.86447525024414 C 18.00142478942871 12.52762603759766 18.39533615112305 11.05841541290283 18.39533615112305 9.497665405273438 C 18.39533615112305 4.591475486755371 14.4038553237915 0.5999946594238281 9.497665405273438 0.5999946594238281 M 9.497665405273438 -3.814697265625e-06 C 14.74308586120605 -3.814697265625e-06 18.99533462524414 4.25224494934082 18.99533462524414 9.497665405273438 C 18.99533462524414 12.87044525146484 17.23726463317871 15.83260536193848 14.2534351348877 17.72069549560547 C 13.11635589599609 18.4533748626709 11.37030601501465 18.99533462524414 9.497665405273438 18.99533462524414 C 4.25224494934082 18.99533462524414 -3.814697265625e-06 14.74308586120605 -3.814697265625e-06 9.497665405273438 C -3.814697265625e-06 4.25224494934082 4.25224494934082 -3.814697265625e-06 9.497665405273438 -3.814697265625e-06 Z" stroke="none" fill="#fff"/>
  </g>
  <path id="Path_1256" data-name="Path 1256" d="M-88.711,30.331l-4.938,7.183a.9.9,0,0,1-.684.387l-.056,0a.9.9,0,0,1-.671-.3l-3.592-4.04a.9.9,0,0,1,.075-1.267.9.9,0,0,1,1.267.075l2.83,3.183,4.289-6.239a.9.9,0,0,1,1.249-.231A.9.9,0,0,1-88.711,30.331Z" transform="translate(102.936 -23.948)" fill="#fff"/>
</svg>
