<svg xmlns="http://www.w3.org/2000/svg" width="24.181" height="24.206" viewBox="0 0 24.181 24.206">
  <g id="map_view_deactive" data-name="map view deactive" transform="translate(0.1 0.106)">
    <path id="Path_1250" data-name="Path 1250" d="M24.191.5a.558.558,0,0,0-.546-.015l-3.2,1.7a5.8,5.8,0,0,0-8.319,0L8.917.481s-.007,0-.011,0a.553.553,0,0,0-.508,0L.775,4.514a.553.553,0,0,0-.3.491V23.862a.555.555,0,0,0,.837.478l7.342-4.316L16,24.34h0a.558.558,0,0,0,.28.076.551.551,0,0,0,.281-.077l7.623-4.481a.554.554,0,0,0,.274-.479V.972A.557.557,0,0,0,24.191.5Zm-7.91,1.032a4.706,4.706,0,0,1,4.7,4.7c0,2.012-3.092,5.795-4.7,7.547-1.609-1.752-4.7-5.534-4.7-7.547A4.706,4.706,0,0,1,16.281,1.528ZM1.59,5.34,8.1,1.895v10.3L3.5,14.678a.556.556,0,0,0,.264,1.045.546.546,0,0,0,.263-.067l4.079-2.2v5.607L1.59,22.891ZM9.213,19.063V1.895l2.2,1.164a5.777,5.777,0,0,0-.945,3.17c0,2.407,3.048,6.126,4.59,7.853L11.592,12.7a.556.556,0,1,0-.411,1.032l4.545,1.812v7.348Zm14.136,0-6.513,3.828V15.155h0v-.346c1-1.055,5.256-5.735,5.256-8.581a5.777,5.777,0,0,0-.945-3.17l2.2-1.164V19.063Z" transform="translate(-0.479 -0.417)" fill="#8481ad" stroke="#8481ad" stroke-width="0.2"/>
    <g id="Ellipse_307" data-name="Ellipse 307" transform="translate(12.5 3)" fill="none" stroke="#8481ad" stroke-width="1">
      <circle cx="3" cy="3" r="3" stroke="none"/>
      <circle cx="3" cy="3" r="2.5" fill="none"/>
    </g>
  </g>
</svg>
