<svg xmlns="http://www.w3.org/2000/svg" width="14" height="14" viewBox="0 0 14 14">
  <g id="move" transform="translate(0 0)">
    <path id="Path_1264" data-name="Path 1264" d="M10.384,15.27a.132.132,0,0,0,.047.071l2.96,2.288a.119.119,0,0,0,.145,0,.124.124,0,0,0,.043-.142l-.6-1.519,3.646,0v3.637l-1.509-.6a.115.115,0,0,0-.137.039.119.119,0,0,0-.027.071.128.128,0,0,0,.027.075l2.274,2.982a.1.1,0,0,0,.02.016.126.126,0,0,0,.078.028.117.117,0,0,0,.094-.047L19.722,19.2a.12.12,0,0,0,0-.146.126.126,0,0,0-.145-.039l-1.505.6V15.972h.2a.111.111,0,0,0,.016,0h3.489l-.6,1.515a.123.123,0,0,0,.039.142.135.135,0,0,0,.078.024.1.1,0,0,0,.067-.024l2.964-2.292a.119.119,0,0,0,.047-.095.126.126,0,0,0-.047-.1l-2.96-2.288a.124.124,0,0,0-.149,0,.123.123,0,0,0-.039.142l.6,1.519-3.493,0h-.22v-.146a.114.114,0,0,0,0-.016l0-3.515,1.509.6a.119.119,0,0,0,.141-.036.138.138,0,0,0,.024-.079.114.114,0,0,0-.027-.071L17.448,8.272a.125.125,0,0,0-.2,0l-2.27,2.978a.126.126,0,0,0,0,.15.114.114,0,0,0,.137.036l1.513-.6,0,2.738v.939H12.983l.6-1.515a.124.124,0,0,0-.043-.142.114.114,0,0,0-.071-.024.119.119,0,0,0-.074.024l-2.96,2.288a.126.126,0,0,0-.047.1.122.122,0,0,0,0,.028Z" transform="translate(-10.383 -8.224)"/>
  </g>
</svg>
