<svg xmlns="http://www.w3.org/2000/svg" width="28.276" height="30.554" viewBox="0 0 28.276 30.554">
  <g id="notification_active_state" data-name="notification active state" transform="translate(1.033 1)">
    <path id="Path_201" data-name="Path 201" d="M24.669,24.985H16.433a3.45,3.45,0,0,1-3.295,3.569,3.45,3.45,0,0,1-3.295-3.569H1.607A1.61,1.61,0,0,1,.124,23.735a2.01,2.01,0,0,1,.494-1.963,7.4,7.4,0,0,0,2.636-5.711V10.708C3.254,4.818,7.7,0,13.138,0s9.884,4.818,9.884,10.708v5.354a7.4,7.4,0,0,0,2.636,5.711,1.779,1.779,0,0,1,.494,1.963A1.61,1.61,0,0,1,24.669,24.985Z" transform="translate(-0.063)" fill="none" stroke="#fff" stroke-width="2" fill-rule="evenodd" opacity="0.64"/>
  </g>
</svg>
