<svg xmlns="http://www.w3.org/2000/svg" xmlns:xlink="http://www.w3.org/1999/xlink" width="94" height="94" viewBox="0 0 94 94">
  <defs>
    <filter id="Path_1243" x="0" y="0" width="94" height="94" filterUnits="userSpaceOnUse">
      <feOffset dy="3" input="SourceAlpha"/>
      <feGaussianBlur stdDeviation="3" result="blur"/>
      <feFlood flood-opacity="0.122"/>
      <feComposite operator="in" in2="blur"/>
      <feComposite in="SourceGraphic"/>
    </filter>
  </defs>
  <g id="Parking_Slots" data-name="Parking Slots" transform="translate(9 6)">
    <g id="Group_1823" data-name="Group 1823">
      <g transform="matrix(1, 0, 0, 1, -9, -6)" filter="url(#Path_1243)">
        <path id="Path_1243-2" data-name="Path 1243" d="M38,0A38,38,0,1,1,0,38,38,38,0,0,1,38,0Z" transform="translate(9 6)" fill="#03a9f3"/>
      </g>
    </g>
    <g id="Group_899" data-name="Group 899" transform="translate(17 18)">
      <path id="Path_264" data-name="Path 264" d="M2.964,20.543H22.987a1.974,1.974,0,0,0,1.964-1.964V6.349a1.974,1.974,0,0,0-1.964-1.964H17.031V2.167h3.612a.635.635,0,0,0,.634-.634A.6.6,0,0,0,20.643.9c-8.934.063-6.78.063-15.271.063a.635.635,0,0,0-.634.634.6.6,0,0,0,.634.634H8.984V4.385H2.964A1.974,1.974,0,0,0,1,6.349V18.642A1.962,1.962,0,0,0,2.964,20.543ZM10.188,2.167h5.639V4.322H10.188ZM2.2,6.349a.7.7,0,0,1,.7-.7H22.924a.7.7,0,0,1,.7.7V18.642a.7.7,0,0,1-.7.7H2.964a.7.7,0,0,1-.7-.7V6.349Z" transform="translate(-1 -0.9)" fill="#fff"/>
      <path id="Path_265" data-name="Path 265" d="M16.334,20.811a.635.635,0,0,0,.634-.634V17.389h1.711a2.344,2.344,0,0,0,0-4.689H16.334a.635.635,0,0,0-.634.634V20.24A.585.585,0,0,0,16.334,20.811Zm.634-6.843h1.711a1.141,1.141,0,0,1,0,2.281H16.967Z" transform="translate(-6.385 -5.223)" fill="#fff"/>
      <path id="Path_266" data-name="Path 266" d="M1.634,49.814H4.992a4.478,4.478,0,0,0,8.871,0H28.817a4.478,4.478,0,0,0,8.871,0h3.232a.635.635,0,0,0,.634-.634V46.646a.635.635,0,0,0-.634-.634H39.842V45a10.9,10.9,0,0,0-10.9-10.9H18.869a6.119,6.119,0,0,0-6.083,5.513H9.427a7.025,7.025,0,0,0-6.97,6.4H1.634A.635.635,0,0,0,1,46.646v2.535A.6.6,0,0,0,1.634,49.814Zm7.73,2.661A3.232,3.232,0,1,1,12.6,49.244,3.245,3.245,0,0,1,9.364,52.476Zm23.825,0a3.232,3.232,0,1,1,3.232-3.232A3.245,3.245,0,0,1,33.189,52.476ZM27.93,35.367h0c2.725,0,4.309,2.851,4.752,4.245h-7.73V35.367Zm-9.061,0h4.879v4.245H14.053A4.912,4.912,0,0,1,18.869,35.367ZM2.2,47.28h.824a.635.635,0,0,0,.634-.634A5.787,5.787,0,0,1,9.427,40.88H33.442a.635.635,0,0,0,.634-.634,7.686,7.686,0,0,0-2.281-4.435,9.7,9.7,0,0,1,6.843,9.251v1.647a.635.635,0,0,0,.634.634h1.077V48.61H37.624a4.478,4.478,0,0,0-8.871,0H13.8a4.478,4.478,0,0,0-8.871,0H2.2Z" transform="translate(-1 -13.063)" fill="#fff"/>
      <path id="Path_267" data-name="Path 267" d="M32.828,48.35a3.068,3.068,0,0,0,1.647.507,2.938,2.938,0,0,0,1.584-.507.634.634,0,0,0-.76-1.014,1.571,1.571,0,0,1-1.838,0,.589.589,0,0,0-.824.19A.543.543,0,0,0,32.828,48.35Z" transform="translate(-12.552 -17.872)" fill="#fff"/>
      <path id="Path_268" data-name="Path 268" d="M13.028,54.8a2.028,2.028,0,1,0,2.028,2.028A2,2,0,0,0,13.028,54.8Zm0,2.788a.76.76,0,0,1,0-1.521.818.818,0,0,1,.76.76A.73.73,0,0,1,13.028,57.588Z" transform="translate(-4.664 -20.647)" fill="#fff"/>
      <path id="Path_269" data-name="Path 269" d="M50.628,54.8a2.028,2.028,0,1,0,2.028,2.028A2.042,2.042,0,0,0,50.628,54.8Zm0,2.788a.76.76,0,1,1,0-1.521.83.83,0,0,1,.824.76A.94.94,0,0,1,50.628,57.588Z" transform="translate(-18.439 -20.647)" fill="#fff"/>
    </g>
  </g>
</svg>
