<svg id="Parking_Mgmt_Collapsed_Active" data-name="Parking Mgmt Collapsed Active" xmlns="http://www.w3.org/2000/svg" width="24" height="24" viewBox="0 0 24 24">
  <path id="Path_270" data-name="Path 270" d="M32.242,12.8H17.558A4.68,4.68,0,0,0,12.9,17.458V32.142A4.68,4.68,0,0,0,17.558,36.8H32.242A4.68,4.68,0,0,0,36.9,32.142V17.49A4.645,4.645,0,0,0,32.242,12.8ZM30.948,24.153a4.474,4.474,0,0,1-1.035,1.617A4.817,4.817,0,0,1,28.231,26.9a5.493,5.493,0,0,1-2.232.42h-3.04v5.11H19.628v-15.2h6.4a5.544,5.544,0,0,1,2.264.453,4.751,4.751,0,0,1,1.65,1.164A5.22,5.22,0,0,1,31.3,22.277,5.362,5.362,0,0,1,30.948,24.153Z" transform="translate(-12.9 -12.8)" fill="#01c0c8"/>
  <path id="Path_271" data-name="Path 271" d="M47.04,36.5H44v3.687h3.04a1.919,1.919,0,0,0,.744-.162,1.607,1.607,0,0,0,.615-.42,2.072,2.072,0,0,0,.42-.615,1.919,1.919,0,0,0,.162-.744,1.645,1.645,0,0,0-.55-1.294A2.053,2.053,0,0,0,47.04,36.5Z" transform="translate(-33.941 -28.834)" fill="#01c0c8"/>
</svg>
