<svg id="Component_99_2" data-name="Component 99 – 2" xmlns="http://www.w3.org/2000/svg" width="188" height="188" viewBox="0 0 188 188">
  <circle id="Ellipse_281" data-name="Ellipse 281" cx="94" cy="94" r="94" fill="#e46a76" opacity="0.61"/>
  <path id="Path_1134" data-name="Path 1134" d="M97.92,55.488a6.528,6.528,0,0,0-6.528-6.528H87.04l-2.176-6.528C81.6,32.64,71.808,32.64,71.808,32.64H32.64s-9.792,0-13.056,9.792L17.408,48.96H13.056a6.529,6.529,0,0,0-1.81,12.8A13.03,13.03,0,0,0,6.528,71.808V84.864c0,1.887,1.214,3.409,3.264,4.637v11.683a3.264,3.264,0,0,0,3.264,3.264h9.792a3.264,3.264,0,0,0,3.264-3.264V93.622a249.824,249.824,0,0,0,26.112,1.034,249.513,249.513,0,0,0,26.112-1.034v7.562a3.264,3.264,0,0,0,3.264,3.264h9.792a3.264,3.264,0,0,0,3.264-3.264V89.5c2.049-1.229,3.264-2.75,3.264-4.637V71.808A13.03,13.03,0,0,0,93.2,61.761,6.53,6.53,0,0,0,97.92,55.488ZM22.68,43.464a10.422,10.422,0,0,1,5.919-6.6A11.991,11.991,0,0,1,32.64,35.9H71.808a11.991,11.991,0,0,1,4.041.959,10.421,10.421,0,0,1,5.919,6.6l5.1,15.287H17.584ZM9.792,55.488a3.264,3.264,0,0,1,3.264-3.264H16.32l-2.176,6.528H13.056A3.264,3.264,0,0,1,9.792,55.488Zm13.056,45.7H13.056V91a51.509,51.509,0,0,0,9.792,2.214Zm68.544,0H81.6V93.213A51.529,51.529,0,0,0,91.392,91Zm3.264-29.376V84.864a.9.9,0,0,1-.039.27c-.507,1.646-5.02,3.065-6.441,3.455A82.417,82.417,0,0,1,72.5,90.863c-6.752.468-13.508.529-20.273.529s-13.521-.061-20.273-.529a82.43,82.43,0,0,1-15.679-2.274c-1.42-.391-5.934-1.81-6.441-3.455a.871.871,0,0,1-.039-.27V71.808a9.793,9.793,0,0,1,9.792-9.792h65.28A9.793,9.793,0,0,1,94.656,71.808ZM91.392,58.752H90.3l-2.176-6.528h3.264a3.264,3.264,0,1,1,0,6.528ZM19.584,68.544a6.528,6.528,0,1,0,6.528,6.528A6.528,6.528,0,0,0,19.584,68.544Zm0,9.792a3.264,3.264,0,1,1,3.264-3.264A3.264,3.264,0,0,1,19.584,78.336Zm82.441-65.165L53.065.115a3.131,3.131,0,0,0-1.682,0L2.423,13.171A3.228,3.228,0,0,0,0,16.325v3.259a3.172,3.172,0,0,0,1.275,2.588,3.17,3.17,0,0,0,2.83.566L52.224,9.906l48.119,12.832a3.264,3.264,0,0,0,4.105-3.154V16.325A3.228,3.228,0,0,0,102.025,13.171Zm-.841,6.413L52.224,6.528,3.264,19.584V16.325L52.224,3.269l48.96,13.056Zm-16.32,48.96a6.528,6.528,0,1,0,6.528,6.528A6.528,6.528,0,0,0,84.864,68.544Zm0,9.792a3.264,3.264,0,1,1,3.264-3.264A3.264,3.264,0,0,1,84.864,78.336ZM70.176,71.808h-35.9a1.632,1.632,0,0,0,0,3.264h35.9a1.632,1.632,0,1,0,0-3.264Zm-3.264,6.528H37.536a1.632,1.632,0,1,0,0,3.264H66.912a1.632,1.632,0,1,0,0-3.264Z" transform="translate(42.04 42.223)" fill="#f4f2fa"/>
</svg>
