<svg xmlns="http://www.w3.org/2000/svg" xmlns:xlink="http://www.w3.org/1999/xlink" width="94" height="94" viewBox="0 0 94 94">
  <defs>
    <filter id="Ellipse_278" x="0" y="0" width="94" height="94" filterUnits="userSpaceOnUse">
      <feOffset dy="3" input="SourceAlpha"/>
      <feGaussianBlur stdDeviation="3" result="blur"/>
      <feFlood flood-opacity="0.122"/>
      <feComposite operator="in" in2="blur"/>
      <feComposite in="SourceGraphic"/>
    </filter>
  </defs>
  <g id="Parking_Space" data-name="Parking Space" transform="translate(9 6)">
    <g transform="matrix(1, 0, 0, 1, -9, -6)" filter="url(#Ellipse_278)">
      <circle id="Ellipse_278-2" data-name="Ellipse 278" cx="38" cy="38" r="38" transform="translate(9 6)" fill="#00c292"/>
    </g>
    <path id="Path_249" data-name="Path 249" d="M17.026,4.31a3.705,3.705,0,0,0-3.7,3.7v7.4H5.177a3.7,3.7,0,0,0-3.7,3.7v8.143s0,0,0,.007A3.692,3.692,0,0,0,0,30.219V42.8a.74.74,0,0,0,.74.74H14.825c-.018-2.336-.019-4.674-.019-7.033a5.557,5.557,0,0,1,5.549-5.552h2.226a5.557,5.557,0,0,1,5.549,5.552c.039,2.366-.028,4.7-.028,7.033H42.2a.74.74,0,0,0,.74-.74V30.219a3.693,3.693,0,0,0-1.481-2.953s0,0,0-.007V19.116a3.7,3.7,0,0,0-3.7-3.7H29.611v-7.4a3.705,3.705,0,0,0-3.7-3.7Zm0,1.481H25.91a2.223,2.223,0,0,1,2.22,2.221v7.4H14.805v-7.4A2.223,2.223,0,0,1,17.026,5.791Zm2.221,1.48v6.662h1.48V11.713H22.2a2.221,2.221,0,1,0,0-4.442H19.247Zm1.481,1.48H22.2a.734.734,0,0,1,.744.74.743.743,0,0,1-.744.74H20.728ZM5.177,16.9H37.758a2.221,2.221,0,0,1,2.216,2.221v7.4H2.961v-7.4A2.221,2.221,0,0,1,5.177,16.9Zm0,1.48a.74.74,0,0,0-.74.74V24.3a.74.74,0,0,0,.74.74H11.1a.74.74,0,0,0,.74-.74V19.116a.74.74,0,0,0-.74-.74Zm8.883,0a.74.74,0,0,0-.74.74V24.3a.74.74,0,0,0,.74.74h5.922a.74.74,0,0,0,.74-.74V19.116a.74.74,0,0,0-.74-.74Zm8.883,0a.74.74,0,0,0-.74.74V24.3a.74.74,0,0,0,.74.74H28.87a.74.74,0,0,0,.74-.74V19.116a.74.74,0,0,0-.74-.74Zm8.883,0a.74.74,0,0,0-.74.74V24.3a.74.74,0,0,0,.74.74h5.922a.74.74,0,0,0,.74-.74V19.116a.74.74,0,0,0-.74-.74ZM5.922,19.856h4.442v3.7H5.922Zm8.883,0h4.442v3.7H14.805Zm8.883,0H28.13v3.7H23.689Zm8.883,0h4.442v3.7H32.572ZM3.7,28H39.231a2.225,2.225,0,0,1,2.225,2.22V42.064H29.611V36.512a7.039,7.039,0,0,0-7.03-7.033H20.355a7.039,7.039,0,0,0-7.03,7.033v5.552H1.48V30.219A2.225,2.225,0,0,1,3.7,28Z" transform="translate(16.903 11.904)" fill="#fff" opacity="0.8"/>
  </g>
</svg>
