<svg id="pin" xmlns="http://www.w3.org/2000/svg" xmlns:xlink="http://www.w3.org/1999/xlink" width="39.392" height="46" viewBox="0 0 39.392 46">
  <defs>
    <linearGradient id="linear-gradient" x1="0.123" y1="0.106" x2="0.992" y2="0.85" gradientUnits="objectBoundingBox">
      <stop offset="0" stop-color="#004681"/>
      <stop offset="1" stop-color="#007dc5"/>
    </linearGradient>
    <linearGradient id="linear-gradient-2" x1="-0.1" y1="-0.136" x2="1.55" y2="1.613" xlink:href="#linear-gradient"/>
  </defs>
  <path id="Path_1126" data-name="Path 1126" d="M616.26,290.038a19.7,19.7,0,0,0-39.392,0c0,4.445,4.029,11.833,4.037,11.829a1.264,1.264,0,0,0,1.139.678,1.243,1.243,0,0,0,1.247-1.2h0s-.01-11.142-.01-11.309,0-.334.01-.5l.01-.227a13.241,13.241,0,1,1,7.975,12.8,1.216,1.216,0,0,0-.115-.05,1.186,1.186,0,0,0-.439-.08,1.246,1.246,0,0,0-1.247,1.191h0v7.171h0c0,.028,0,.056,0,.084a1.226,1.226,0,0,0,.353.861h0l3.819,4h0a4.063,4.063,0,0,0,6.023-.2l10.266-10.72A19.379,19.379,0,0,0,616.26,290.038Z" transform="translate(-576.868 -270.525)" fill="url(#linear-gradient)"/>
  <path id="Path_1127" data-name="Path 1127" d="M615.136,304.819l.787-3.066a.7.7,0,0,0-1.188-.651l-8.032,8.342a.7.7,0,0,0,.508,1.175h5.533a.7.7,0,0,1,.681.866l-.8,3.122a.7.7,0,0,0,1.19.65l7.981-8.342a.7.7,0,0,0-.5-1.174l-5.482-.056A.7.7,0,0,1,615.136,304.819Z" transform="translate(-594.551 -288.637)" fill="url(#linear-gradient-2)"/>
</svg>
