<svg id="ratings_and_reviews" data-name="ratings and reviews" xmlns="http://www.w3.org/2000/svg" width="115.371" height="16.371" viewBox="0 0 115.371 16.371">
  <path id="Path_280" data-name="Path 280" d="M9.109.739l2.274,6.366h5.912l-5,3.638,1.876,6.367L9.109,13.472,4.051,17.11l1.876-6.367-5-3.638H6.836Z" transform="translate(23.076 -0.739)" fill="#f49d3e"/>
  <g id="Component_48_1" data-name="Component 48 – 1">
    <path id="Path_1246" data-name="Path 1246" d="M9.109.739l2.274,6.366h5.912l-5,3.638,1.876,6.367L9.109,13.472,4.051,17.11l1.876-6.367-5-3.638H6.836Z" transform="translate(-0.924 -0.739)" fill="#f49d3e"/>
  </g>
  <path id="Path_281" data-name="Path 281" d="M9.109.739l2.274,6.366h5.912l-5,3.638,1.876,6.367L9.109,13.472,4.051,17.11l1.876-6.367-5-3.638H6.836Z" transform="translate(48.076 -0.739)" fill="#f49d3e"/>
  <path id="Path_282" data-name="Path 282" d="M9.109.739l2.274,6.366h5.912l-5,3.638,1.876,6.367L9.109,13.472,4.051,17.11l1.876-6.367-5-3.638H6.836Z" transform="translate(72.076 -0.739)" fill="#f49d3e"/>
  <path id="Path_283" data-name="Path 283" d="M9.109.739l2.274,6.366h5.912l-5,3.638,1.876,6.367L9.109,13.472,4.051,17.11l1.876-6.367-5-3.638H6.836Z" transform="translate(98.076 -0.739)" fill="#dad8d6"/>
</svg>
