<svg id="role_management_Collapsed_deactive" data-name="role management Collapsed deactive" xmlns="http://www.w3.org/2000/svg" width="34.286" height="24" viewBox="0 0 34.286 24">
  <path id="Path_291" data-name="Path 291" d="M15.074,20.809c-4.011,0-12,2.006-12,6v3h24v-3C27.074,22.815,19.085,20.809,15.074,20.809Zm0-3a6,6,0,1,0-6-6A6.007,6.007,0,0,0,15.074,17.809Zm12.069,3.1a7.187,7.187,0,0,1,3.36,5.9v3H37.36v-3C37.36,23.346,31.36,21.375,27.143,20.912Zm-1.783-3.1a6,6,0,1,0,0-12,5.907,5.907,0,0,0-2.571.6,9.362,9.362,0,0,1,0,10.8A5.907,5.907,0,0,0,25.36,17.809Z" transform="translate(-3.074 -5.809)" fill="#869599"/>
</svg>
