<svg xmlns="http://www.w3.org/2000/svg" width="22.922" height="25.547" viewBox="0 0 22.922 25.547">
  <g id="services_requested_active_state" data-name="services requested active state" transform="translate(0.758 0.751)">
    <path id="Path_273" data-name="Path 273" d="M24.155,13.784a.214.214,0,0,0,.179-.175,7.414,7.414,0,0,0,0-2.461.214.214,0,0,0-.179-.175l-1.828-.287a.531.531,0,0,1-.347-.838l1.09-1.494a.215.215,0,0,0,0-.25,7.383,7.383,0,0,0-1.741-1.741.215.215,0,0,0-.25,0l-1.494,1.09a.532.532,0,0,1-.838-.347l-.287-1.828a.214.214,0,0,0-.175-.179,7.412,7.412,0,0,0-2.461,0,.214.214,0,0,0-.175.179l-.287,1.828a.532.532,0,0,1-.839.347l-1.493-1.09a.215.215,0,0,0-.25,0A7.384,7.384,0,0,0,11.043,8.1a.215.215,0,0,0,0,.25l1.09,1.494a.531.531,0,0,1-.347.838l-1.828.287a.215.215,0,0,0-.179.175,7.428,7.428,0,0,0,0,2.461.215.215,0,0,0,.179.175l1.828.287a.531.531,0,0,1,.347.838L11.046,16.4a.215.215,0,0,0,0,.25,7.378,7.378,0,0,0,1.741,1.741.215.215,0,0,0,.25,0l1.493-1.09a.532.532,0,0,1,.839.347l.287,1.828a.214.214,0,0,0,.175.179,7.412,7.412,0,0,0,2.461,0,.214.214,0,0,0,.175-.179l.287-1.828a.532.532,0,0,1,.839-.347l1.493,1.09a.215.215,0,0,0,.25,0,7.383,7.383,0,0,0,1.741-1.741.215.215,0,0,0,0-.25l-1.09-1.494a.532.532,0,0,1,.116-.743Zm-7.1,1.464a2.869,2.869,0,1,1,2.87-2.869h0A2.87,2.87,0,0,1,17.058,15.248Zm12.053,7.4a8.014,8.014,0,0,1-.85.644c0,.32-1.855,1.6-2.13,1.813a25.168,25.168,0,0,1-2.877,1.926,25.861,25.861,0,0,1-6.1,1.941,37.48,37.48,0,0,1-7.273-.718,8.347,8.347,0,0,0-2.155-.015V22.752c0-.012,0-.023,0-.035a6.4,6.4,0,0,1,2.262-1.056,10.416,10.416,0,0,1,3.8.015,9.732,9.732,0,0,0,3.078.018,18.849,18.849,0,0,0,2.5-.429c.86-.28,1.41-.241,1.724.323a.886.886,0,0,1-.366,1.173,7.4,7.4,0,0,1-2.077,1.123,25.836,25.836,0,0,1-3.341.7,22.02,22.02,0,0,0,2.158.539,16.042,16.042,0,0,0,4.546-.237c1.6-.382,4.007-2.459,5.017-2.825a2.08,2.08,0,0,1,1.69-.137C28.958,22.048,29.208,22.52,29.111,22.648Z" transform="translate(-7.726 -5)" fill="none" stroke="#09aaa5" stroke-width="1.5"/>
  </g>
</svg>
