<svg xmlns="http://www.w3.org/2000/svg" xmlns:xlink="http://www.w3.org/1999/xlink" width="94" height="94" viewBox="0 0 94 94">
  <defs>
    <filter id="Ellipse_278" x="0" y="0" width="94" height="94" filterUnits="userSpaceOnUse">
      <feOffset dy="3" input="SourceAlpha"/>
      <feGaussianBlur stdDeviation="3" result="blur"/>
      <feFlood flood-opacity="0.122"/>
      <feComposite operator="in" in2="blur"/>
      <feComposite in="SourceGraphic"/>
    </filter>
  </defs>
  <g id="Total_Bookings" data-name="Total Bookings" transform="translate(9 6)">
    <g transform="matrix(1, 0, 0, 1, -9, -6)" filter="url(#Ellipse_278)">
      <circle id="Ellipse_278-2" data-name="Ellipse 278" cx="38" cy="38" r="38" transform="translate(9 6)" fill="#e46a76"/>
    </g>
    <g id="noun_booking_1131224" transform="translate(20 20)" opacity="0.8">
      <path id="Path_250" data-name="Path 250" d="M34.723,6.76h-.595V3.785A1.787,1.787,0,0,0,32.343,2h-1.19a1.787,1.787,0,0,0-1.785,1.785V6.76H10.329V3.785A1.787,1.787,0,0,0,8.545,2H7.355A1.787,1.787,0,0,0,5.57,3.785V6.76H4.975A2.978,2.978,0,0,0,2,9.735V34.723A2.978,2.978,0,0,0,4.975,37.7H34.723A2.978,2.978,0,0,0,37.7,34.723V9.735A2.978,2.978,0,0,0,34.723,6.76ZM30.558,3.785a.6.6,0,0,1,.595-.595h1.19a.6.6,0,0,1,.595.595v5.95a.6.6,0,0,1-.595.595h-1.19a.6.6,0,0,1-.595-.595V3.785Zm-23.8,0a.6.6,0,0,1,.595-.595h1.19a.6.6,0,0,1,.595.595v5.95a.6.6,0,0,1-.595.595H7.355a.6.6,0,0,1-.595-.595V3.785ZM4.975,7.95H5.57V9.735a1.787,1.787,0,0,0,1.785,1.785h1.19a1.787,1.787,0,0,0,1.785-1.785V7.95H29.368V9.735a1.787,1.787,0,0,0,1.785,1.785h1.19a1.787,1.787,0,0,0,1.785-1.785V7.95h.595a1.787,1.787,0,0,1,1.785,1.785v6.545H3.19V9.735A1.787,1.787,0,0,1,4.975,7.95ZM34.723,36.508H4.975A1.787,1.787,0,0,1,3.19,34.723V17.469H36.508V34.723A1.787,1.787,0,0,1,34.723,36.508Z" transform="translate(-2 -2)" fill="#fff"/>
      <path id="Path_251" data-name="Path 251" d="M20.595,19.76H33.684a.594.594,0,0,0,.595-.595v-3.57A.594.594,0,0,0,33.684,15H20.595a.594.594,0,0,0-.595.595v3.57A.594.594,0,0,0,20.595,19.76Zm.595-3.57h11.9v2.38H21.19Z" transform="translate(-9.291 -7.265)" fill="#fff"/>
      <path id="Path_252" data-name="Path 252" d="M12.165,31H8.595A.594.594,0,0,0,8,31.595V34.57a.594.594,0,0,0,.595.595h3.57a.594.594,0,0,0,.595-.595V31.595A.594.594,0,0,0,12.165,31Zm-.595,2.975H9.19V32.19h2.38Z" transform="translate(-4.43 -13.746)" fill="#fff"/>
      <path id="Path_253" data-name="Path 253" d="M25.165,31h-3.57a.594.594,0,0,0-.595.595V34.57a.594.594,0,0,0,.595.595h3.57a.594.594,0,0,0,.595-.595V31.595A.594.594,0,0,0,25.165,31Zm-.595,2.975H22.19V32.19h2.38Z" transform="translate(-9.696 -13.746)" fill="#fff"/>
      <path id="Path_254" data-name="Path 254" d="M35.595,35.165h3.57a.594.594,0,0,0,.595-.595V31.595A.594.594,0,0,0,39.165,31h-3.57a.594.594,0,0,0-.595.595V34.57A.594.594,0,0,0,35.595,35.165Zm.595-2.975h2.38v1.785H36.19Z" transform="translate(-15.366 -13.746)" fill="#fff"/>
      <path id="Path_255" data-name="Path 255" d="M52.165,31h-3.57a.594.594,0,0,0-.595.595V34.57a.594.594,0,0,0,.595.595h3.57a.594.594,0,0,0,.595-.595V31.595A.594.594,0,0,0,52.165,31Zm-.595,2.975H49.19V32.19h2.38Z" transform="translate(-20.632 -13.746)" fill="#fff"/>
      <path id="Path_256" data-name="Path 256" d="M12.165,41H8.595A.594.594,0,0,0,8,41.595V44.57a.594.594,0,0,0,.595.595h3.57a.594.594,0,0,0,.595-.595V41.595A.594.594,0,0,0,12.165,41Zm-.595,2.975H9.19V42.19h2.38Z" transform="translate(-4.43 -17.796)" fill="#fff"/>
      <path id="Path_257" data-name="Path 257" d="M25.165,41h-3.57a.594.594,0,0,0-.595.595V44.57a.594.594,0,0,0,.595.595h3.57a.594.594,0,0,0,.595-.595V41.595A.594.594,0,0,0,25.165,41Zm-.595,2.975H22.19V42.19h2.38Z" transform="translate(-9.696 -17.796)" fill="#fff"/>
      <path id="Path_258" data-name="Path 258" d="M35.595,45.165h3.57a.594.594,0,0,0,.595-.595V41.595A.594.594,0,0,0,39.165,41h-3.57a.594.594,0,0,0-.595.595V44.57A.594.594,0,0,0,35.595,45.165Zm.595-2.975h2.38v1.785H36.19Z" transform="translate(-15.366 -17.796)" fill="#fff"/>
      <path id="Path_259" data-name="Path 259" d="M52.165,41h-3.57a.594.594,0,0,0-.595.595V44.57a.594.594,0,0,0,.595.595h3.57a.594.594,0,0,0,.595-.595V41.595A.594.594,0,0,0,52.165,41Zm-.595,2.975H49.19V42.19h2.38Z" transform="translate(-20.632 -17.796)" fill="#fff"/>
      <path id="Path_260" data-name="Path 260" d="M12.165,51H8.595A.594.594,0,0,0,8,51.595V54.57a.594.594,0,0,0,.595.595h3.57a.594.594,0,0,0,.595-.595V51.595A.594.594,0,0,0,12.165,51Zm-.595,2.975H9.19V52.19h2.38Z" transform="translate(-4.43 -21.847)" fill="#fff"/>
      <path id="Path_261" data-name="Path 261" d="M25.165,51h-3.57a.594.594,0,0,0-.595.595V54.57a.594.594,0,0,0,.595.595h3.57a.594.594,0,0,0,.595-.595V51.595A.594.594,0,0,0,25.165,51Zm-.595,2.975H22.19V52.19h2.38Z" transform="translate(-9.696 -21.847)" fill="#fff"/>
      <path id="Path_262" data-name="Path 262" d="M36.459,53.429l-1.324-1.324-.841.841,1.785,1.785a.591.591,0,0,0,.421.174h.027a.6.6,0,0,0,.431-.213l2.975-3.57-.914-.762Z" transform="translate(-15.08 -21.588)" fill="#fff"/>
      <path id="Path_263" data-name="Path 263" d="M48.459,53.429l-1.324-1.324-.841.841,1.785,1.785a.591.591,0,0,0,.421.174h.027a.6.6,0,0,0,.431-.213l2.975-3.57-.914-.762Z" transform="translate(-19.94 -21.588)" fill="#fff"/>
    </g>
  </g>
</svg>
